G04 #@! TF.FileFunction,Copper,L2,Bot,Signal*
%FSLAX46Y46*%
G04 Gerber Fmt 4.6, Leading zero omitted, Abs format (unit mm)*
G04 Created by KiCad (PCBNEW 4.0.2-4+6225~38~ubuntu14.04.1-stable) date lun 02 mag 2016 14:49:53 CEST*
%MOMM*%
G01*
G04 APERTURE LIST*
%ADD10C,0.100000*%
%ADD11C,1.879600*%
%ADD12R,1.879600X1.879600*%
%ADD13C,1.066800*%
%ADD14C,1.250000*%
%ADD15C,0.250000*%
G04 APERTURE END LIST*
D10*
D11*
X18750000Y-26010000D03*
X21290000Y-26010000D03*
X23830000Y-26010000D03*
X26370000Y-26010000D03*
X28910000Y-26010000D03*
X31450000Y-26010000D03*
X33990000Y-26010000D03*
X36530000Y-26010000D03*
X39070000Y-26010000D03*
X41610000Y-26010000D03*
X44150000Y-26010000D03*
X46690000Y-26010000D03*
X49230000Y-26010000D03*
X51770000Y-26010000D03*
X54310000Y-26010000D03*
X56850000Y-26010000D03*
X59390000Y-26010000D03*
X61930000Y-26010000D03*
X64470000Y-26010000D03*
X67010000Y-26010000D03*
X67010000Y-41250000D03*
X64470000Y-41250000D03*
X61930000Y-41250000D03*
X59390000Y-41250000D03*
X56850000Y-41250000D03*
X54310000Y-41250000D03*
X51770000Y-41250000D03*
X49230000Y-41250000D03*
X46690000Y-41250000D03*
X44150000Y-41250000D03*
X41610000Y-41250000D03*
X39070000Y-41250000D03*
X36530000Y-41250000D03*
X33990000Y-41250000D03*
X31450000Y-41250000D03*
X28910000Y-41250000D03*
X26370000Y-41250000D03*
X23830000Y-41250000D03*
X21290000Y-41250000D03*
D12*
X18750000Y-41250000D03*
X67010000Y-31090000D03*
D11*
X67010000Y-33630000D03*
X67010000Y-36170000D03*
X59390000Y-31090000D03*
X56850000Y-31090000D03*
X54310000Y-31090000D03*
X51770000Y-31090000D03*
X51770000Y-33630000D03*
X54310000Y-33630000D03*
X56850000Y-33630000D03*
X59390000Y-33630000D03*
D13*
X33736000Y-34544400D03*
X33736000Y-33223600D03*
D11*
X59390000Y-36170000D03*
D14*
X5000000Y-7500000D03*
X6250000Y-5000000D03*
X7500000Y-7500000D03*
X8750000Y-5000000D03*
X10000000Y-7500000D03*
X11250000Y-5000000D03*
X12500000Y-7500000D03*
X13750000Y-5000000D03*
X15000000Y-7500000D03*
X35000000Y-7500000D03*
X36250000Y-5000000D03*
X37500000Y-7500000D03*
X38750000Y-5000000D03*
X40000000Y-7500000D03*
X41250000Y-5000000D03*
X42500000Y-7500000D03*
X43750000Y-5000000D03*
X45000000Y-7500000D03*
X46250000Y-5000000D03*
X47500000Y-7500000D03*
X48750000Y-5000000D03*
X50000000Y-7500000D03*
X51250000Y-5000000D03*
X52500000Y-7500000D03*
X53750000Y-5000000D03*
X55000000Y-7500000D03*
X56250000Y-5000000D03*
X57500000Y-7500000D03*
X58750000Y-5000000D03*
X60000000Y-7500000D03*
X61250000Y-5000000D03*
X62500000Y-7500000D03*
X63750000Y-5000000D03*
X65000000Y-7500000D03*
X66250000Y-5000000D03*
D15*
X41610000Y-41250000D02*
X41610000Y-43390000D01*
X17500000Y-55000000D02*
X5000000Y-42500000D01*
X41610000Y-43390000D02*
X30000000Y-55000000D01*
X30000000Y-55000000D02*
X17500000Y-55000000D01*
X5000000Y-42500000D02*
X5000000Y-7500000D01*
X6250000Y-5000000D02*
X6250000Y-42500000D01*
X17500000Y-53750000D02*
X6250000Y-42500000D01*
X28750000Y-53750000D02*
X17500000Y-53750000D01*
X29499992Y-53000008D02*
X28750000Y-53750000D01*
X39070000Y-43430000D02*
X29499992Y-53000008D01*
X39070000Y-41250000D02*
X39070000Y-43430000D01*
X36530000Y-41250000D02*
X36530000Y-43470000D01*
X27500000Y-52500000D02*
X17500000Y-52500000D01*
X36530000Y-43470000D02*
X27500000Y-52500000D01*
X17500000Y-52500000D02*
X7500000Y-42500000D01*
X7500000Y-42500000D02*
X7500000Y-7500000D01*
X8750000Y-5000000D02*
X8750000Y-42500000D01*
X17500000Y-51250000D02*
X8750000Y-42500000D01*
X18042880Y-51250000D02*
X17500000Y-51250000D01*
X26250000Y-51250000D02*
X18042880Y-51250000D01*
X33990000Y-43510000D02*
X26250000Y-51250000D01*
X33990000Y-41250000D02*
X33990000Y-43510000D01*
X10000000Y-42500000D02*
X17500000Y-50000000D01*
X10000000Y-42500000D02*
X10000000Y-36250000D01*
X10000000Y-36250000D02*
X10000000Y-7500000D01*
X17500000Y-50000000D02*
X25000000Y-50000000D01*
X25000000Y-50000000D02*
X31450000Y-43550000D01*
X31450000Y-43550000D02*
X31450000Y-41250000D01*
X28910000Y-41250000D02*
X28910000Y-43590000D01*
X28910000Y-43590000D02*
X23750000Y-48750000D01*
X23750000Y-48750000D02*
X17500000Y-48750000D01*
X17500000Y-48750000D02*
X11250000Y-42500000D01*
X11250000Y-42500000D02*
X11250000Y-5000000D01*
X12500000Y-7500000D02*
X12500000Y-42500000D01*
X17500000Y-47500000D02*
X12500000Y-42500000D01*
X22500000Y-47500000D02*
X17500000Y-47500000D01*
X26370000Y-43630000D02*
X22500000Y-47500000D01*
X26370000Y-41250000D02*
X26370000Y-43630000D01*
X17500000Y-46250000D02*
X21250000Y-46250000D01*
X21250000Y-46250000D02*
X23830000Y-43670000D01*
X13750000Y-42500000D02*
X17500000Y-46250000D01*
X13750000Y-5000000D02*
X13750000Y-42500000D01*
X23830000Y-41250000D02*
X23830000Y-43670000D01*
X15000000Y-42500000D02*
X15000000Y-7500000D01*
X17500000Y-45000000D02*
X15000000Y-42500000D01*
X20000000Y-45000000D02*
X17500000Y-45000000D01*
X21290000Y-43710000D02*
X20000000Y-45000000D01*
X21290000Y-41250000D02*
X21290000Y-43710000D01*
X35000000Y-7500000D02*
X35000000Y-10000000D01*
X23830000Y-21170000D02*
X23830000Y-26010000D01*
X35000000Y-10000000D02*
X23830000Y-21170000D01*
X26370000Y-26010000D02*
X26370000Y-19880000D01*
X26370000Y-19880000D02*
X36250000Y-10000000D01*
X36250000Y-10000000D02*
X36250000Y-7932762D01*
X36250000Y-7932762D02*
X36250000Y-5000000D01*
X37500000Y-7500000D02*
X37500000Y-10000000D01*
X37500000Y-10000000D02*
X28910000Y-18590000D01*
X28910000Y-18590000D02*
X28910000Y-26010000D01*
X38750000Y-5000000D02*
X38750000Y-3750000D01*
X38750000Y-3750000D02*
X37500000Y-2500000D01*
X37500000Y-2500000D02*
X33750000Y-2500000D01*
X33750000Y-2500000D02*
X16250000Y-20000000D01*
X16250000Y-20000000D02*
X16250000Y-40000000D01*
X16250000Y-40000000D02*
X17500000Y-41250000D01*
X17500000Y-41250000D02*
X18750000Y-41250000D01*
X40000000Y-7500000D02*
X40000000Y-10000000D01*
X40000000Y-10000000D02*
X33990000Y-16010000D01*
X33990000Y-16010000D02*
X33990000Y-26010000D01*
X36530000Y-26010000D02*
X36530000Y-14720000D01*
X36530000Y-14720000D02*
X41250000Y-10000000D01*
X41250000Y-10000000D02*
X41250000Y-5000000D01*
X42500000Y-7500000D02*
X42500000Y-10000000D01*
X42500000Y-10000000D02*
X39070000Y-13430000D01*
X39070000Y-13430000D02*
X39070000Y-26010000D01*
X43750000Y-5000000D02*
X43750000Y-10000000D01*
X41610000Y-12140000D02*
X41610000Y-26010000D01*
X43750000Y-10000000D02*
X41610000Y-12140000D01*
X45000000Y-7500000D02*
X45000000Y-10000000D01*
X45000000Y-10000000D02*
X49230000Y-14230000D01*
X49230000Y-14230000D02*
X49230000Y-26010000D01*
X46250000Y-5000000D02*
X46250000Y-10000000D01*
X46250000Y-10000000D02*
X51770000Y-15520000D01*
X51770000Y-15520000D02*
X51770000Y-26010000D01*
X47500000Y-7500000D02*
X47500000Y-10000000D01*
X47500000Y-10000000D02*
X54310000Y-16810000D01*
X54310000Y-16810000D02*
X54310000Y-26010000D01*
X48750000Y-5000000D02*
X48750000Y-10000000D01*
X48750000Y-10000000D02*
X56850000Y-18100000D01*
X56850000Y-18100000D02*
X56850000Y-26010000D01*
X50000000Y-7500000D02*
X50000000Y-10000000D01*
X50000000Y-10000000D02*
X59390000Y-19390000D01*
X59390000Y-19390000D02*
X59390000Y-26010000D01*
X51250000Y-5000000D02*
X51250000Y-10000000D01*
X51250000Y-10000000D02*
X61930000Y-20680000D01*
X61930000Y-20680000D02*
X61930000Y-26010000D01*
X64470000Y-21970000D02*
X52500000Y-10000000D01*
X52500000Y-10000000D02*
X52500000Y-7500000D01*
X64470000Y-26010000D02*
X64470000Y-21970000D01*
X53750000Y-5000000D02*
X53750000Y-10000000D01*
X53750000Y-10000000D02*
X67010000Y-23260000D01*
X67010000Y-23260000D02*
X67010000Y-26010000D01*
X55000000Y-7500000D02*
X55000000Y-10000000D01*
X55000000Y-10000000D02*
X70000000Y-25000000D01*
X70000000Y-25000000D02*
X70000000Y-42500000D01*
X70000000Y-42500000D02*
X68750000Y-43750000D01*
X67010000Y-43260000D02*
X67010000Y-41250000D01*
X68750000Y-43750000D02*
X67500000Y-43750000D01*
X67500000Y-43750000D02*
X67010000Y-43260000D01*
X64470000Y-41250000D02*
X64470000Y-43220000D01*
X68750000Y-45000000D02*
X71250000Y-42500000D01*
X71250000Y-42500000D02*
X71250000Y-25000000D01*
X64470000Y-43220000D02*
X66250000Y-45000000D01*
X71250000Y-25000000D02*
X56250000Y-10000000D01*
X66250000Y-45000000D02*
X68750000Y-45000000D01*
X56250000Y-10000000D02*
X56250000Y-5000000D01*
X57500000Y-7500000D02*
X57500000Y-10000000D01*
X57500000Y-10000000D02*
X72500000Y-25000000D01*
X72500000Y-25000000D02*
X72500000Y-42500000D01*
X72500000Y-42500000D02*
X68750000Y-46250000D01*
X68750000Y-46250000D02*
X65000000Y-46250000D01*
X61930000Y-43180000D02*
X61930000Y-43070000D01*
X65000000Y-46250000D02*
X61930000Y-43180000D01*
X61930000Y-43070000D02*
X61930000Y-41250000D01*
X63750000Y-47500000D02*
X63750000Y-47470000D01*
X63750000Y-47470000D02*
X59390000Y-43110000D01*
X68750000Y-47500000D02*
X63750000Y-47500000D01*
X73750000Y-42500000D02*
X68750000Y-47500000D01*
X73750000Y-25000000D02*
X73750000Y-42500000D01*
X58750000Y-10000000D02*
X73750000Y-25000000D01*
X58750000Y-5000000D02*
X58750000Y-10000000D01*
X59390000Y-41250000D02*
X59390000Y-43110000D01*
X60000000Y-7500000D02*
X60000000Y-10000000D01*
X75000000Y-25000000D02*
X75000000Y-42500000D01*
X60000000Y-10000000D02*
X75000000Y-25000000D01*
X75000000Y-42500000D02*
X68750000Y-48750000D01*
X68750000Y-48750000D02*
X62450000Y-48750000D01*
X62450000Y-48750000D02*
X56850000Y-43150000D01*
X56850000Y-43150000D02*
X56850000Y-41250000D01*
X61250000Y-5000000D02*
X61250000Y-10000000D01*
X76250000Y-42500000D02*
X68750000Y-50000000D01*
X54310000Y-43190000D02*
X54310000Y-41250000D01*
X61250000Y-10000000D02*
X76250000Y-25000000D01*
X76250000Y-25000000D02*
X76250000Y-42500000D01*
X68750000Y-50000000D02*
X61120000Y-50000000D01*
X61120000Y-50000000D02*
X54310000Y-43190000D01*
X62500000Y-7500000D02*
X62500000Y-10000000D01*
X62500000Y-10000000D02*
X77500000Y-25000000D01*
X77500000Y-25000000D02*
X77500000Y-42500000D01*
X77500000Y-42500000D02*
X68750000Y-51250000D01*
X68750000Y-51250000D02*
X60000000Y-51250000D01*
X60000000Y-51250000D02*
X51770000Y-43020000D01*
X51770000Y-43020000D02*
X51770000Y-41250000D01*
X63750000Y-5000000D02*
X63750000Y-10000000D01*
X63750000Y-10000000D02*
X78750000Y-25000000D01*
X58750000Y-52500000D02*
X49230000Y-42980000D01*
X78750000Y-25000000D02*
X78750000Y-42500000D01*
X78750000Y-42500000D02*
X68750000Y-52500000D01*
X68750000Y-52500000D02*
X58750000Y-52500000D01*
X49230000Y-42980000D02*
X49230000Y-41250000D01*
X46690000Y-41250000D02*
X46690000Y-42940000D01*
X46690000Y-42940000D02*
X57500000Y-53750000D01*
X80000000Y-42500000D02*
X80000000Y-25000000D01*
X57500000Y-53750000D02*
X68750000Y-53750000D01*
X68750000Y-53750000D02*
X80000000Y-42500000D01*
X80000000Y-25000000D02*
X65000000Y-10000000D01*
X65000000Y-10000000D02*
X65000000Y-7500000D01*
X66250000Y-5000000D02*
X66250000Y-10000000D01*
X68750000Y-55000000D02*
X56250000Y-55000000D01*
X66250000Y-10000000D02*
X81250000Y-25000000D01*
X56250000Y-55000000D02*
X44150000Y-42900000D01*
X81250000Y-25000000D02*
X81250000Y-42500000D01*
X81250000Y-42500000D02*
X68750000Y-55000000D01*
X44150000Y-42900000D02*
X44150000Y-41250000D01*
M02*
