G04 #@! TF.FileFunction,Legend,Top*
%FSLAX46Y46*%
G04 Gerber Fmt 4.6, Leading zero omitted, Abs format (unit mm)*
G04 Created by KiCad (PCBNEW 4.0.2-4+6225~38~ubuntu14.04.1-stable) date lun 02 mag 2016 11:29:17 CEST*
%MOMM*%
G01*
G04 APERTURE LIST*
%ADD10C,0.100000*%
%ADD11C,0.381000*%
%ADD12C,0.228600*%
G04 APERTURE END LIST*
D10*
X187500000Y-128750000D02*
X100000000Y-128750000D01*
X189188390Y-62455400D02*
G75*
G03X189188390Y-62455400I-1666666J0D01*
G01*
X185021724Y-62455400D02*
X190021724Y-62455400D01*
X187521724Y-59955400D02*
X187521724Y-64955400D01*
X101668629Y-128752980D02*
G75*
G03X101668629Y-128752980I-1666666J0D01*
G01*
X97501963Y-128752980D02*
X102501963Y-128752980D01*
X100001963Y-126252980D02*
X100001963Y-131252980D01*
X187500000Y-62500000D02*
X100000000Y-62500000D01*
X187500000Y-128750000D02*
X187500000Y-62500000D01*
X100000000Y-62500000D02*
X100000000Y-128750000D01*
D11*
X158134000Y-97855600D02*
X160674000Y-97855600D01*
X160674000Y-92775600D02*
X160674000Y-100395600D01*
X160674000Y-100395600D02*
X158134000Y-100395600D01*
X158134000Y-100395600D02*
X158134000Y-97855600D01*
X158134000Y-97855600D02*
X150514000Y-97855600D01*
X150514000Y-97855600D02*
X150514000Y-92775600D01*
X150514000Y-92775600D02*
X160674000Y-92775600D01*
X168294000Y-92775600D02*
X165754000Y-92775600D01*
X165754000Y-92775600D02*
X165754000Y-100395600D01*
X165754000Y-100395600D02*
X168294000Y-100395600D01*
X117494000Y-94045600D02*
X123844000Y-94045600D01*
X123844000Y-94045600D02*
X123844000Y-99125600D01*
X123844000Y-99125600D02*
X117494000Y-99125600D01*
X168294000Y-102935600D02*
X117494000Y-102935600D01*
X117494000Y-90235600D02*
X168294000Y-90235600D01*
X117494000Y-87695600D02*
X168294000Y-87695600D01*
X168294000Y-87695600D02*
X168294000Y-105475600D01*
X168294000Y-105475600D02*
X117494000Y-105475600D01*
X117494000Y-105475600D02*
X117494000Y-87695600D01*
D12*
X128298434Y-101583957D02*
X128298434Y-102324186D01*
X128341977Y-102411271D01*
X128385520Y-102454814D01*
X128472606Y-102498357D01*
X128646777Y-102498357D01*
X128733863Y-102454814D01*
X128777406Y-102411271D01*
X128820949Y-102324186D01*
X128820949Y-101583957D01*
X129735349Y-102498357D02*
X129212834Y-102498357D01*
X129474092Y-102498357D02*
X129474092Y-101583957D01*
X129387006Y-101714586D01*
X129299920Y-101801671D01*
X129212834Y-101845214D01*
X118148595Y-100950409D02*
X118671109Y-100950409D01*
X118409852Y-102474409D02*
X118409852Y-100950409D01*
X118975909Y-101676123D02*
X119280709Y-101676123D01*
X119411338Y-102474409D02*
X118975909Y-102474409D01*
X118975909Y-100950409D01*
X119411338Y-100950409D01*
X119803223Y-101676123D02*
X120108023Y-101676123D01*
X120238652Y-102474409D02*
X119803223Y-102474409D01*
X119803223Y-100950409D01*
X120238652Y-100950409D01*
X120630537Y-102474409D02*
X120630537Y-100950409D01*
X121153052Y-102474409D01*
X121153052Y-100950409D01*
X121544937Y-102401837D02*
X121675566Y-102474409D01*
X121893280Y-102474409D01*
X121980366Y-102401837D01*
X122023909Y-102329266D01*
X122067452Y-102184123D01*
X122067452Y-102038980D01*
X122023909Y-101893837D01*
X121980366Y-101821266D01*
X121893280Y-101748694D01*
X121719109Y-101676123D01*
X121632023Y-101603551D01*
X121588480Y-101530980D01*
X121544937Y-101385837D01*
X121544937Y-101240694D01*
X121588480Y-101095551D01*
X121632023Y-101022980D01*
X121719109Y-100950409D01*
X121936823Y-100950409D01*
X122067452Y-101022980D01*
X122633509Y-101748694D02*
X122633509Y-102474409D01*
X122328709Y-100950409D02*
X122633509Y-101748694D01*
X122938309Y-100950409D01*
X123243108Y-102474409D02*
X123243108Y-100950409D01*
X123591451Y-100950409D01*
X123678537Y-101022980D01*
X123722080Y-101095551D01*
X123765623Y-101240694D01*
X123765623Y-101458409D01*
X123722080Y-101603551D01*
X123678537Y-101676123D01*
X123591451Y-101748694D01*
X123243108Y-101748694D01*
X124157508Y-102474409D02*
X124157508Y-100950409D01*
X124505851Y-100950409D01*
X124592937Y-101022980D01*
X124636480Y-101095551D01*
X124680023Y-101240694D01*
X124680023Y-101458409D01*
X124636480Y-101603551D01*
X124592937Y-101676123D01*
X124505851Y-101748694D01*
X124157508Y-101748694D01*
X125028365Y-101095551D02*
X125071908Y-101022980D01*
X125158994Y-100950409D01*
X125376708Y-100950409D01*
X125463794Y-101022980D01*
X125507337Y-101095551D01*
X125550880Y-101240694D01*
X125550880Y-101385837D01*
X125507337Y-101603551D01*
X124984823Y-102474409D01*
X125550880Y-102474409D01*
M02*
