G04 #@! TF.FileFunction,Copper,L1,Top,Signal*
%FSLAX46Y46*%
G04 Gerber Fmt 4.6, Leading zero omitted, Abs format (unit mm)*
G04 Created by KiCad (PCBNEW 4.0.2-4+6225~38~ubuntu14.04.1-stable) date lun 02 mag 2016 14:49:53 CEST*
%MOMM*%
G01*
G04 APERTURE LIST*
%ADD10C,0.100000*%
%ADD11C,1.879600*%
%ADD12R,1.879600X1.879600*%
%ADD13C,1.066800*%
%ADD14C,1.250000*%
G04 APERTURE END LIST*
D10*
D11*
X18750000Y-26010000D03*
X21290000Y-26010000D03*
X23830000Y-26010000D03*
X26370000Y-26010000D03*
X28910000Y-26010000D03*
X31450000Y-26010000D03*
X33990000Y-26010000D03*
X36530000Y-26010000D03*
X39070000Y-26010000D03*
X41610000Y-26010000D03*
X44150000Y-26010000D03*
X46690000Y-26010000D03*
X49230000Y-26010000D03*
X51770000Y-26010000D03*
X54310000Y-26010000D03*
X56850000Y-26010000D03*
X59390000Y-26010000D03*
X61930000Y-26010000D03*
X64470000Y-26010000D03*
X67010000Y-26010000D03*
X67010000Y-41250000D03*
X64470000Y-41250000D03*
X61930000Y-41250000D03*
X59390000Y-41250000D03*
X56850000Y-41250000D03*
X54310000Y-41250000D03*
X51770000Y-41250000D03*
X49230000Y-41250000D03*
X46690000Y-41250000D03*
X44150000Y-41250000D03*
X41610000Y-41250000D03*
X39070000Y-41250000D03*
X36530000Y-41250000D03*
X33990000Y-41250000D03*
X31450000Y-41250000D03*
X28910000Y-41250000D03*
X26370000Y-41250000D03*
X23830000Y-41250000D03*
X21290000Y-41250000D03*
D12*
X18750000Y-41250000D03*
X67010000Y-31090000D03*
D11*
X67010000Y-33630000D03*
X67010000Y-36170000D03*
X59390000Y-31090000D03*
X56850000Y-31090000D03*
X54310000Y-31090000D03*
X51770000Y-31090000D03*
X51770000Y-33630000D03*
X54310000Y-33630000D03*
X56850000Y-33630000D03*
X59390000Y-33630000D03*
D13*
X33736000Y-34544400D03*
X33736000Y-33223600D03*
D11*
X59390000Y-36170000D03*
D14*
X5000000Y-7500000D03*
X6250000Y-5000000D03*
X7500000Y-7500000D03*
X8750000Y-5000000D03*
X10000000Y-7500000D03*
X11250000Y-5000000D03*
X12500000Y-7500000D03*
X13750000Y-5000000D03*
X15000000Y-7500000D03*
X35000000Y-7500000D03*
X36250000Y-5000000D03*
X37500000Y-7500000D03*
X38750000Y-5000000D03*
X40000000Y-7500000D03*
X41250000Y-5000000D03*
X42500000Y-7500000D03*
X43750000Y-5000000D03*
X45000000Y-7500000D03*
X46250000Y-5000000D03*
X47500000Y-7500000D03*
X48750000Y-5000000D03*
X50000000Y-7500000D03*
X51250000Y-5000000D03*
X52500000Y-7500000D03*
X53750000Y-5000000D03*
X55000000Y-7500000D03*
X56250000Y-5000000D03*
X57500000Y-7500000D03*
X58750000Y-5000000D03*
X60000000Y-7500000D03*
X61250000Y-5000000D03*
X62500000Y-7500000D03*
X63750000Y-5000000D03*
X65000000Y-7500000D03*
X66250000Y-5000000D03*
M02*
