M48
;DRILL file {KiCad 4.0.2-4+6225~38~ubuntu14.04.1-stable} date lun 02 mag 2016 14:50:08 CEST
;FORMAT={-:-/ absolute / metric / decimal}
FMAT,2
METRIC,TZ
T1C0.635
T2C0.850
T3C1.016
%
G90
G05
M71
T1
X133.736Y-95.724
X133.736Y-97.044
T2
X105.Y-70.
X106.25Y-67.5
X107.5Y-70.
X108.75Y-67.5
X110.Y-70.
X111.25Y-67.5
X112.5Y-70.
X113.75Y-67.5
X115.Y-70.
X135.Y-70.
X136.25Y-67.5
X137.5Y-70.
X138.75Y-67.5
X140.Y-70.
X141.25Y-67.5
X142.5Y-70.
X143.75Y-67.5
X145.Y-70.
X146.25Y-67.5
X147.5Y-70.
X148.75Y-67.5
X150.Y-70.
X151.25Y-67.5
X152.5Y-70.
X153.75Y-67.5
X155.Y-70.
X156.25Y-67.5
X157.5Y-70.
X158.75Y-67.5
X160.Y-70.
X161.25Y-67.5
X162.5Y-70.
X163.75Y-67.5
X165.Y-70.
X166.25Y-67.5
T3
X118.75Y-88.51
X118.75Y-103.75
X121.29Y-88.51
X121.29Y-103.75
X123.83Y-88.51
X123.83Y-103.75
X126.37Y-88.51
X126.37Y-103.75
X128.91Y-88.51
X128.91Y-103.75
X131.45Y-88.51
X131.45Y-103.75
X133.99Y-88.51
X133.99Y-103.75
X136.53Y-88.51
X136.53Y-103.75
X139.07Y-88.51
X139.07Y-103.75
X141.61Y-88.51
X141.61Y-103.75
X144.15Y-88.51
X144.15Y-103.75
X146.69Y-88.51
X146.69Y-103.75
X149.23Y-88.51
X149.23Y-103.75
X151.77Y-88.51
X151.77Y-93.59
X151.77Y-96.13
X151.77Y-103.75
X154.31Y-88.51
X154.31Y-93.59
X154.31Y-96.13
X154.31Y-103.75
X156.85Y-88.51
X156.85Y-93.59
X156.85Y-96.13
X156.85Y-103.75
X159.39Y-88.51
X159.39Y-93.59
X159.39Y-96.13
X159.39Y-98.67
X159.39Y-103.75
X161.93Y-88.51
X161.93Y-103.75
X164.47Y-88.51
X164.47Y-103.75
X167.01Y-88.51
X167.01Y-93.59
X167.01Y-96.13
X167.01Y-98.67
X167.01Y-103.75
T0
M30
