M48
;DRILL file {KiCad 4.0.2-4+6225~38~ubuntu14.04.1-stable} date lun 02 mag 2016 10:30:43 CEST
;FORMAT={-:-/ absolute / metric / decimal}
FMAT,2
METRIC,TZ
T1C0.635
T2C0.762
T3C0.850
T4C1.016
%
G90
G05
M71
T1
X136.236Y-95.216
X136.236Y-96.536
T2
X138.75Y-122.5
X140.Y-125.
X141.25Y-122.5
X142.5Y-125.
X143.75Y-122.5
X145.Y-125.
X146.25Y-122.5
X147.5Y-125.
X148.75Y-122.5
X150.Y-125.
X151.25Y-122.5
X152.5Y-125.
X153.75Y-122.5
X155.Y-125.
X156.25Y-122.5
X157.5Y-125.
X158.75Y-122.5
X160.Y-125.
X161.25Y-122.5
X162.5Y-125.
X163.75Y-122.5
X165.Y-125.
X166.25Y-122.5
X167.5Y-125.
X168.75Y-122.5
X170.Y-125.
T3
X108.75Y-122.5
X110.Y-125.
X111.25Y-122.5
X112.5Y-125.
X113.75Y-122.5
X115.Y-125.
X116.25Y-122.5
X117.5Y-125.
X118.75Y-122.5
T4
X121.25Y-88.51
X121.25Y-103.75
X123.79Y-88.51
X123.79Y-103.75
X126.33Y-88.51
X126.33Y-103.75
X128.87Y-88.51
X128.87Y-103.75
X131.41Y-88.51
X131.41Y-103.75
X133.95Y-88.51
X133.95Y-103.75
X136.49Y-88.51
X136.49Y-103.75
X139.03Y-88.51
X139.03Y-103.75
X141.57Y-88.51
X141.57Y-103.75
X144.11Y-88.51
X144.11Y-103.75
X146.65Y-88.51
X146.65Y-103.75
X149.19Y-88.51
X149.19Y-103.75
X151.73Y-88.51
X151.73Y-103.75
X154.27Y-88.51
X154.27Y-96.13
X154.27Y-98.67
X154.27Y-103.75
X156.81Y-88.51
X156.81Y-96.13
X156.81Y-98.67
X156.81Y-103.75
X159.35Y-88.51
X159.35Y-96.13
X159.35Y-98.67
X159.35Y-103.75
X161.89Y-88.51
X161.89Y-93.59
X161.89Y-96.13
X161.89Y-98.67
X161.89Y-103.75
X164.43Y-88.51
X164.43Y-103.75
X166.97Y-88.51
X166.97Y-103.75
X169.51Y-88.51
X169.51Y-93.59
X169.51Y-96.13
X169.51Y-98.67
X169.51Y-103.75
T0
M30
