G04 #@! TF.FileFunction,Legend,Bot*
%FSLAX46Y46*%
G04 Gerber Fmt 4.6, Leading zero omitted, Abs format (unit mm)*
G04 Created by KiCad (PCBNEW 4.0.2-4+6225~38~ubuntu14.04.1-stable) date lun 02 mag 2016 11:29:17 CEST*
%MOMM*%
G01*
G04 APERTURE LIST*
%ADD10C,0.100000*%
%ADD11C,0.150000*%
G04 APERTURE END LIST*
D10*
X187500000Y-128750000D02*
X100000000Y-128750000D01*
X189188390Y-62455400D02*
G75*
G03X189188390Y-62455400I-1666666J0D01*
G01*
X185021724Y-62455400D02*
X190021724Y-62455400D01*
X187521724Y-59955400D02*
X187521724Y-64955400D01*
X101668629Y-128752980D02*
G75*
G03X101668629Y-128752980I-1666666J0D01*
G01*
X97501963Y-128752980D02*
X102501963Y-128752980D01*
X100001963Y-126252980D02*
X100001963Y-131252980D01*
X187500000Y-62500000D02*
X100000000Y-62500000D01*
X187500000Y-128750000D02*
X187500000Y-62500000D01*
X100000000Y-62500000D02*
X100000000Y-128750000D01*
D11*
X135000000Y-71250000D02*
X135000000Y-66250000D01*
X135000000Y-66250000D02*
X168750000Y-66250000D01*
X168750000Y-66250000D02*
X168750000Y-71250000D01*
X168750000Y-71250000D02*
X135000000Y-71250000D01*
X105000000Y-71250000D02*
X105000000Y-66250000D01*
X105000000Y-66250000D02*
X117500000Y-66250000D01*
X117500000Y-66250000D02*
X117500000Y-71250000D01*
X117500000Y-71250000D02*
X105000000Y-71250000D01*
X156988095Y-65452381D02*
X156988095Y-64452381D01*
X156607142Y-64452381D01*
X156511904Y-64500000D01*
X156464285Y-64547619D01*
X156416666Y-64642857D01*
X156416666Y-64785714D01*
X156464285Y-64880952D01*
X156511904Y-64928571D01*
X156607142Y-64976190D01*
X156988095Y-64976190D01*
X156035714Y-64547619D02*
X155988095Y-64500000D01*
X155892857Y-64452381D01*
X155654761Y-64452381D01*
X155559523Y-64500000D01*
X155511904Y-64547619D01*
X155464285Y-64642857D01*
X155464285Y-64738095D01*
X155511904Y-64880952D01*
X156083333Y-65452381D01*
X155464285Y-65452381D01*
M02*
