%FSLAX45Y45*%
G04 Gerber Fmt 4.5, Leading zero omitted, Abs format (unit mm)*
G04 Created by KiCad (PCBNEW 4.0.2-4+6225~38~ubuntu14.04.1-stable) date lun 02 mag 2016 10:30:50 CEST*
%MOMM*%
G01*
G04 APERTURE LIST*
%ADD10C,0.127000*%
%ADD11C,0.100000*%
%ADD12C,0.200000*%
%ADD13C,0.300000*%
G04 APERTURE END LIST*
D10*
D11*
X18750000Y-12875000D02*
X10000000Y-12875000D01*
X18750000Y-6250000D02*
X10000000Y-6250000D01*
X18750000Y-12875000D02*
X18750000Y-6250000D01*
X10000000Y-6250000D02*
X10000000Y-12625000D01*
D12*
X13591850Y-9489810D02*
X13655350Y-9553310D01*
X13655350Y-9489810D02*
X13591850Y-9553310D01*
X13591850Y-9621890D02*
X13655350Y-9685390D01*
X13655350Y-9621890D02*
X13591850Y-9685390D01*
X13913100Y-12250000D02*
G75*
G03X13913100Y-12250000I-38100J0D01*
G01*
X14038100Y-12500000D02*
G75*
G03X14038100Y-12500000I-38100J0D01*
G01*
X14163100Y-12250000D02*
G75*
G03X14163100Y-12250000I-38100J0D01*
G01*
X14288100Y-12500000D02*
G75*
G03X14288100Y-12500000I-38100J0D01*
G01*
X14413100Y-12250000D02*
G75*
G03X14413100Y-12250000I-38100J0D01*
G01*
X14538100Y-12500000D02*
G75*
G03X14538100Y-12500000I-38100J0D01*
G01*
X14663100Y-12250000D02*
G75*
G03X14663100Y-12250000I-38100J0D01*
G01*
X14788100Y-12500000D02*
G75*
G03X14788100Y-12500000I-38100J0D01*
G01*
X14913100Y-12250000D02*
G75*
G03X14913100Y-12250000I-38100J0D01*
G01*
X15038100Y-12500000D02*
G75*
G03X15038100Y-12500000I-38100J0D01*
G01*
X15163100Y-12250000D02*
G75*
G03X15163100Y-12250000I-38100J0D01*
G01*
X15288100Y-12500000D02*
G75*
G03X15288100Y-12500000I-38100J0D01*
G01*
X15413100Y-12250000D02*
G75*
G03X15413100Y-12250000I-38100J0D01*
G01*
X15538100Y-12500000D02*
G75*
G03X15538100Y-12500000I-38100J0D01*
G01*
X15663100Y-12250000D02*
G75*
G03X15663100Y-12250000I-38100J0D01*
G01*
X15788100Y-12500000D02*
G75*
G03X15788100Y-12500000I-38100J0D01*
G01*
X15913100Y-12250000D02*
G75*
G03X15913100Y-12250000I-38100J0D01*
G01*
X16038100Y-12500000D02*
G75*
G03X16038100Y-12500000I-38100J0D01*
G01*
X16163100Y-12250000D02*
G75*
G03X16163100Y-12250000I-38100J0D01*
G01*
X16288100Y-12500000D02*
G75*
G03X16288100Y-12500000I-38100J0D01*
G01*
X16413100Y-12250000D02*
G75*
G03X16413100Y-12250000I-38100J0D01*
G01*
X16538100Y-12500000D02*
G75*
G03X16538100Y-12500000I-38100J0D01*
G01*
X16663100Y-12250000D02*
G75*
G03X16663100Y-12250000I-38100J0D01*
G01*
X16788100Y-12500000D02*
G75*
G03X16788100Y-12500000I-38100J0D01*
G01*
X16913100Y-12250000D02*
G75*
G03X16913100Y-12250000I-38100J0D01*
G01*
X17038100Y-12500000D02*
G75*
G03X17038100Y-12500000I-38100J0D01*
G01*
X10875000Y-12207500D02*
X10875000Y-12292500D01*
X10832500Y-12250000D02*
X10917500Y-12250000D01*
X11000000Y-12457500D02*
X11000000Y-12542500D01*
X10957500Y-12500000D02*
X11042500Y-12500000D01*
X11125000Y-12207500D02*
X11125000Y-12292500D01*
X11082500Y-12250000D02*
X11167500Y-12250000D01*
X11250000Y-12457500D02*
X11250000Y-12542500D01*
X11207500Y-12500000D02*
X11292500Y-12500000D01*
X11375000Y-12207500D02*
X11375000Y-12292500D01*
X11332500Y-12250000D02*
X11417500Y-12250000D01*
X11500000Y-12457500D02*
X11500000Y-12542500D01*
X11457500Y-12500000D02*
X11542500Y-12500000D01*
X11625000Y-12207500D02*
X11625000Y-12292500D01*
X11582500Y-12250000D02*
X11667500Y-12250000D01*
X11750000Y-12457500D02*
X11750000Y-12542500D01*
X11707500Y-12500000D02*
X11792500Y-12500000D01*
X11875000Y-12207500D02*
X11875000Y-12292500D01*
X11832500Y-12250000D02*
X11917500Y-12250000D01*
X12160921Y-8886921D02*
X12160921Y-8815079D01*
X12089079Y-8815079D01*
X12089079Y-8886921D01*
X12160921Y-8886921D01*
X12160921Y-10410921D02*
X12160921Y-10339079D01*
X12089079Y-10339079D01*
X12089079Y-10410921D01*
X12160921Y-10410921D01*
X12414921Y-8886921D02*
X12414921Y-8815079D01*
X12343079Y-8815079D01*
X12343079Y-8886921D01*
X12414921Y-8886921D01*
X12414921Y-10410921D02*
X12414921Y-10339079D01*
X12343079Y-10339079D01*
X12343079Y-10410921D01*
X12414921Y-10410921D01*
X12668921Y-8886921D02*
X12668921Y-8815079D01*
X12597079Y-8815079D01*
X12597079Y-8886921D01*
X12668921Y-8886921D01*
X12668921Y-10410921D02*
X12668921Y-10339079D01*
X12597079Y-10339079D01*
X12597079Y-10410921D01*
X12668921Y-10410921D01*
X12922921Y-8886921D02*
X12922921Y-8815079D01*
X12851079Y-8815079D01*
X12851079Y-8886921D01*
X12922921Y-8886921D01*
X12922921Y-10410921D02*
X12922921Y-10339079D01*
X12851079Y-10339079D01*
X12851079Y-10410921D01*
X12922921Y-10410921D01*
X13176921Y-8886921D02*
X13176921Y-8815079D01*
X13105079Y-8815079D01*
X13105079Y-8886921D01*
X13176921Y-8886921D01*
X13176921Y-10410921D02*
X13176921Y-10339079D01*
X13105079Y-10339079D01*
X13105079Y-10410921D01*
X13176921Y-10410921D01*
X13430921Y-8886921D02*
X13430921Y-8815079D01*
X13359079Y-8815079D01*
X13359079Y-8886921D01*
X13430921Y-8886921D01*
X13430921Y-10410921D02*
X13430921Y-10339079D01*
X13359079Y-10339079D01*
X13359079Y-10410921D01*
X13430921Y-10410921D01*
X13684921Y-8886921D02*
X13684921Y-8815079D01*
X13613079Y-8815079D01*
X13613079Y-8886921D01*
X13684921Y-8886921D01*
X13684921Y-10410921D02*
X13684921Y-10339079D01*
X13613079Y-10339079D01*
X13613079Y-10410921D01*
X13684921Y-10410921D01*
X13938921Y-8886921D02*
X13938921Y-8815079D01*
X13867079Y-8815079D01*
X13867079Y-8886921D01*
X13938921Y-8886921D01*
X13938921Y-10410921D02*
X13938921Y-10339079D01*
X13867079Y-10339079D01*
X13867079Y-10410921D01*
X13938921Y-10410921D01*
X14192921Y-8886921D02*
X14192921Y-8815079D01*
X14121079Y-8815079D01*
X14121079Y-8886921D01*
X14192921Y-8886921D01*
X14192921Y-10410921D02*
X14192921Y-10339079D01*
X14121079Y-10339079D01*
X14121079Y-10410921D01*
X14192921Y-10410921D01*
X14446921Y-8886921D02*
X14446921Y-8815079D01*
X14375079Y-8815079D01*
X14375079Y-8886921D01*
X14446921Y-8886921D01*
X14446921Y-10410921D02*
X14446921Y-10339079D01*
X14375079Y-10339079D01*
X14375079Y-10410921D01*
X14446921Y-10410921D01*
X14700921Y-8886921D02*
X14700921Y-8815079D01*
X14629079Y-8815079D01*
X14629079Y-8886921D01*
X14700921Y-8886921D01*
X14700921Y-10410921D02*
X14700921Y-10339079D01*
X14629079Y-10339079D01*
X14629079Y-10410921D01*
X14700921Y-10410921D01*
X14954921Y-8886921D02*
X14954921Y-8815079D01*
X14883079Y-8815079D01*
X14883079Y-8886921D01*
X14954921Y-8886921D01*
X14954921Y-10410921D02*
X14954921Y-10339079D01*
X14883079Y-10339079D01*
X14883079Y-10410921D01*
X14954921Y-10410921D01*
X15208921Y-8886921D02*
X15208921Y-8815079D01*
X15137079Y-8815079D01*
X15137079Y-8886921D01*
X15208921Y-8886921D01*
X15208921Y-10410921D02*
X15208921Y-10339079D01*
X15137079Y-10339079D01*
X15137079Y-10410921D01*
X15208921Y-10410921D01*
X15462921Y-8886921D02*
X15462921Y-8815079D01*
X15391079Y-8815079D01*
X15391079Y-8886921D01*
X15462921Y-8886921D01*
X15462921Y-9648921D02*
X15462921Y-9577079D01*
X15391079Y-9577079D01*
X15391079Y-9648921D01*
X15462921Y-9648921D01*
X15462921Y-9902921D02*
X15462921Y-9831079D01*
X15391079Y-9831079D01*
X15391079Y-9902921D01*
X15462921Y-9902921D01*
X15462921Y-10410921D02*
X15462921Y-10339079D01*
X15391079Y-10339079D01*
X15391079Y-10410921D01*
X15462921Y-10410921D01*
X15716921Y-8886921D02*
X15716921Y-8815079D01*
X15645079Y-8815079D01*
X15645079Y-8886921D01*
X15716921Y-8886921D01*
X15716921Y-9648921D02*
X15716921Y-9577079D01*
X15645079Y-9577079D01*
X15645079Y-9648921D01*
X15716921Y-9648921D01*
X15716921Y-9902921D02*
X15716921Y-9831079D01*
X15645079Y-9831079D01*
X15645079Y-9902921D01*
X15716921Y-9902921D01*
X15716921Y-10410921D02*
X15716921Y-10339079D01*
X15645079Y-10339079D01*
X15645079Y-10410921D01*
X15716921Y-10410921D01*
X15970921Y-8886921D02*
X15970921Y-8815079D01*
X15899079Y-8815079D01*
X15899079Y-8886921D01*
X15970921Y-8886921D01*
X15970921Y-9648921D02*
X15970921Y-9577079D01*
X15899079Y-9577079D01*
X15899079Y-9648921D01*
X15970921Y-9648921D01*
X15970921Y-9902921D02*
X15970921Y-9831079D01*
X15899079Y-9831079D01*
X15899079Y-9902921D01*
X15970921Y-9902921D01*
X15970921Y-10410921D02*
X15970921Y-10339079D01*
X15899079Y-10339079D01*
X15899079Y-10410921D01*
X15970921Y-10410921D01*
X16224921Y-8886921D02*
X16224921Y-8815079D01*
X16153079Y-8815079D01*
X16153079Y-8886921D01*
X16224921Y-8886921D01*
X16224921Y-9394921D02*
X16224921Y-9323079D01*
X16153079Y-9323079D01*
X16153079Y-9394921D01*
X16224921Y-9394921D01*
X16224921Y-9648921D02*
X16224921Y-9577079D01*
X16153079Y-9577079D01*
X16153079Y-9648921D01*
X16224921Y-9648921D01*
X16224921Y-9902921D02*
X16224921Y-9831079D01*
X16153079Y-9831079D01*
X16153079Y-9902921D01*
X16224921Y-9902921D01*
X16224921Y-10410921D02*
X16224921Y-10339079D01*
X16153079Y-10339079D01*
X16153079Y-10410921D01*
X16224921Y-10410921D01*
X16478921Y-8886921D02*
X16478921Y-8815079D01*
X16407079Y-8815079D01*
X16407079Y-8886921D01*
X16478921Y-8886921D01*
X16478921Y-10410921D02*
X16478921Y-10339079D01*
X16407079Y-10339079D01*
X16407079Y-10410921D01*
X16478921Y-10410921D01*
X16732921Y-8886921D02*
X16732921Y-8815079D01*
X16661079Y-8815079D01*
X16661079Y-8886921D01*
X16732921Y-8886921D01*
X16732921Y-10410921D02*
X16732921Y-10339079D01*
X16661079Y-10339079D01*
X16661079Y-10410921D01*
X16732921Y-10410921D01*
X16986921Y-8886921D02*
X16986921Y-8815079D01*
X16915079Y-8815079D01*
X16915079Y-8886921D01*
X16986921Y-8886921D01*
X16986921Y-9394921D02*
X16986921Y-9323079D01*
X16915079Y-9323079D01*
X16915079Y-9394921D01*
X16986921Y-9394921D01*
X16986921Y-9648921D02*
X16986921Y-9577079D01*
X16915079Y-9577079D01*
X16915079Y-9648921D01*
X16986921Y-9648921D01*
X16986921Y-9902921D02*
X16986921Y-9831079D01*
X16915079Y-9831079D01*
X16915079Y-9902921D01*
X16986921Y-9902921D01*
X16986921Y-10410921D02*
X16986921Y-10339079D01*
X16915079Y-10339079D01*
X16915079Y-10410921D01*
X16986921Y-10410921D01*
D13*
X10266429Y-13345714D02*
X10266429Y-13045714D01*
X10337857Y-13045714D01*
X10380714Y-13060000D01*
X10409286Y-13088571D01*
X10423571Y-13117143D01*
X10437857Y-13174286D01*
X10437857Y-13217143D01*
X10423571Y-13274286D01*
X10409286Y-13302857D01*
X10380714Y-13331429D01*
X10337857Y-13345714D01*
X10266429Y-13345714D01*
X10566429Y-13345714D02*
X10566429Y-13145714D01*
X10566429Y-13202857D02*
X10580714Y-13174286D01*
X10595000Y-13160000D01*
X10623571Y-13145714D01*
X10652143Y-13145714D01*
X10752143Y-13345714D02*
X10752143Y-13145714D01*
X10752143Y-13045714D02*
X10737857Y-13060000D01*
X10752143Y-13074286D01*
X10766429Y-13060000D01*
X10752143Y-13045714D01*
X10752143Y-13074286D01*
X10937857Y-13345714D02*
X10909286Y-13331429D01*
X10895000Y-13302857D01*
X10895000Y-13045714D01*
X11095000Y-13345714D02*
X11066429Y-13331429D01*
X11052143Y-13302857D01*
X11052143Y-13045714D01*
X11437857Y-13345714D02*
X11437857Y-13045714D01*
X11537857Y-13260000D01*
X11637857Y-13045714D01*
X11637857Y-13345714D01*
X11909286Y-13345714D02*
X11909286Y-13188571D01*
X11895000Y-13160000D01*
X11866428Y-13145714D01*
X11809286Y-13145714D01*
X11780714Y-13160000D01*
X11909286Y-13331429D02*
X11880714Y-13345714D01*
X11809286Y-13345714D01*
X11780714Y-13331429D01*
X11766428Y-13302857D01*
X11766428Y-13274286D01*
X11780714Y-13245714D01*
X11809286Y-13231429D01*
X11880714Y-13231429D01*
X11909286Y-13217143D01*
X12052143Y-13145714D02*
X12052143Y-13445714D01*
X12052143Y-13160000D02*
X12080714Y-13145714D01*
X12137857Y-13145714D01*
X12166428Y-13160000D01*
X12180714Y-13174286D01*
X12195000Y-13202857D01*
X12195000Y-13288571D01*
X12180714Y-13317143D01*
X12166428Y-13331429D01*
X12137857Y-13345714D01*
X12080714Y-13345714D01*
X12052143Y-13331429D01*
X12323571Y-13317143D02*
X12337857Y-13331429D01*
X12323571Y-13345714D01*
X12309286Y-13331429D01*
X12323571Y-13317143D01*
X12323571Y-13345714D01*
X12323571Y-13160000D02*
X12337857Y-13174286D01*
X12323571Y-13188571D01*
X12309286Y-13174286D01*
X12323571Y-13160000D01*
X12323571Y-13188571D01*
X9931500Y-13808250D02*
X9995000Y-13871750D01*
X9995000Y-13808250D02*
X9931500Y-13871750D01*
X10323571Y-13675714D02*
X10352143Y-13675714D01*
X10380714Y-13690000D01*
X10395000Y-13704286D01*
X10409286Y-13732857D01*
X10423571Y-13790000D01*
X10423571Y-13861429D01*
X10409286Y-13918571D01*
X10395000Y-13947143D01*
X10380714Y-13961429D01*
X10352143Y-13975714D01*
X10323571Y-13975714D01*
X10295000Y-13961429D01*
X10280714Y-13947143D01*
X10266429Y-13918571D01*
X10252143Y-13861429D01*
X10252143Y-13790000D01*
X10266429Y-13732857D01*
X10280714Y-13704286D01*
X10295000Y-13690000D01*
X10323571Y-13675714D01*
X10552143Y-13947143D02*
X10566429Y-13961429D01*
X10552143Y-13975714D01*
X10537857Y-13961429D01*
X10552143Y-13947143D01*
X10552143Y-13975714D01*
X10823571Y-13675714D02*
X10766428Y-13675714D01*
X10737857Y-13690000D01*
X10723571Y-13704286D01*
X10695000Y-13747143D01*
X10680714Y-13804286D01*
X10680714Y-13918571D01*
X10695000Y-13947143D01*
X10709286Y-13961429D01*
X10737857Y-13975714D01*
X10795000Y-13975714D01*
X10823571Y-13961429D01*
X10837857Y-13947143D01*
X10852143Y-13918571D01*
X10852143Y-13847143D01*
X10837857Y-13818571D01*
X10823571Y-13804286D01*
X10795000Y-13790000D01*
X10737857Y-13790000D01*
X10709286Y-13804286D01*
X10695000Y-13818571D01*
X10680714Y-13847143D01*
X11109286Y-13775714D02*
X11109286Y-13975714D01*
X11037857Y-13661429D02*
X10966429Y-13875714D01*
X11152143Y-13875714D01*
X11266428Y-13975714D02*
X11266428Y-13775714D01*
X11266428Y-13804286D02*
X11280714Y-13790000D01*
X11309286Y-13775714D01*
X11352143Y-13775714D01*
X11380714Y-13790000D01*
X11395000Y-13818571D01*
X11395000Y-13975714D01*
X11395000Y-13818571D02*
X11409286Y-13790000D01*
X11437857Y-13775714D01*
X11480714Y-13775714D01*
X11509286Y-13790000D01*
X11523571Y-13818571D01*
X11523571Y-13975714D01*
X11666428Y-13975714D02*
X11666428Y-13775714D01*
X11666428Y-13804286D02*
X11680714Y-13790000D01*
X11709286Y-13775714D01*
X11752143Y-13775714D01*
X11780714Y-13790000D01*
X11795000Y-13818571D01*
X11795000Y-13975714D01*
X11795000Y-13818571D02*
X11809286Y-13790000D01*
X11837857Y-13775714D01*
X11880714Y-13775714D01*
X11909286Y-13790000D01*
X11923571Y-13818571D01*
X11923571Y-13975714D01*
X12509286Y-13661429D02*
X12252143Y-14047143D01*
X12895000Y-13675714D02*
X12923571Y-13675714D01*
X12952143Y-13690000D01*
X12966428Y-13704286D01*
X12980714Y-13732857D01*
X12995000Y-13790000D01*
X12995000Y-13861429D01*
X12980714Y-13918571D01*
X12966428Y-13947143D01*
X12952143Y-13961429D01*
X12923571Y-13975714D01*
X12895000Y-13975714D01*
X12866428Y-13961429D01*
X12852143Y-13947143D01*
X12837857Y-13918571D01*
X12823571Y-13861429D01*
X12823571Y-13790000D01*
X12837857Y-13732857D01*
X12852143Y-13704286D01*
X12866428Y-13690000D01*
X12895000Y-13675714D01*
X13123571Y-13947143D02*
X13137857Y-13961429D01*
X13123571Y-13975714D01*
X13109286Y-13961429D01*
X13123571Y-13947143D01*
X13123571Y-13975714D01*
X13323571Y-13675714D02*
X13352143Y-13675714D01*
X13380714Y-13690000D01*
X13395000Y-13704286D01*
X13409285Y-13732857D01*
X13423571Y-13790000D01*
X13423571Y-13861429D01*
X13409285Y-13918571D01*
X13395000Y-13947143D01*
X13380714Y-13961429D01*
X13352143Y-13975714D01*
X13323571Y-13975714D01*
X13295000Y-13961429D01*
X13280714Y-13947143D01*
X13266428Y-13918571D01*
X13252143Y-13861429D01*
X13252143Y-13790000D01*
X13266428Y-13732857D01*
X13280714Y-13704286D01*
X13295000Y-13690000D01*
X13323571Y-13675714D01*
X13537857Y-13704286D02*
X13552143Y-13690000D01*
X13580714Y-13675714D01*
X13652143Y-13675714D01*
X13680714Y-13690000D01*
X13695000Y-13704286D01*
X13709285Y-13732857D01*
X13709285Y-13761429D01*
X13695000Y-13804286D01*
X13523571Y-13975714D01*
X13709285Y-13975714D01*
X13980714Y-13675714D02*
X13837857Y-13675714D01*
X13823571Y-13818571D01*
X13837857Y-13804286D01*
X13866428Y-13790000D01*
X13937857Y-13790000D01*
X13966428Y-13804286D01*
X13980714Y-13818571D01*
X13995000Y-13847143D01*
X13995000Y-13918571D01*
X13980714Y-13947143D01*
X13966428Y-13961429D01*
X13937857Y-13975714D01*
X13866428Y-13975714D01*
X13837857Y-13961429D01*
X13823571Y-13947143D01*
X14109286Y-13675714D02*
X14109286Y-13732857D01*
X14223571Y-13675714D02*
X14223571Y-13732857D01*
X14666428Y-14090000D02*
X14652143Y-14075714D01*
X14623571Y-14032857D01*
X14609285Y-14004286D01*
X14595000Y-13961429D01*
X14580714Y-13890000D01*
X14580714Y-13832857D01*
X14595000Y-13761429D01*
X14609285Y-13718571D01*
X14623571Y-13690000D01*
X14652143Y-13647143D01*
X14666428Y-13632857D01*
X14766428Y-13704286D02*
X14780714Y-13690000D01*
X14809285Y-13675714D01*
X14880714Y-13675714D01*
X14909285Y-13690000D01*
X14923571Y-13704286D01*
X14937857Y-13732857D01*
X14937857Y-13761429D01*
X14923571Y-13804286D01*
X14752143Y-13975714D01*
X14937857Y-13975714D01*
X15295000Y-13975714D02*
X15295000Y-13675714D01*
X15423571Y-13975714D02*
X15423571Y-13818571D01*
X15409285Y-13790000D01*
X15380714Y-13775714D01*
X15337857Y-13775714D01*
X15309285Y-13790000D01*
X15295000Y-13804286D01*
X15609285Y-13975714D02*
X15580714Y-13961429D01*
X15566428Y-13947143D01*
X15552143Y-13918571D01*
X15552143Y-13832857D01*
X15566428Y-13804286D01*
X15580714Y-13790000D01*
X15609285Y-13775714D01*
X15652143Y-13775714D01*
X15680714Y-13790000D01*
X15695000Y-13804286D01*
X15709285Y-13832857D01*
X15709285Y-13918571D01*
X15695000Y-13947143D01*
X15680714Y-13961429D01*
X15652143Y-13975714D01*
X15609285Y-13975714D01*
X15880714Y-13975714D02*
X15852143Y-13961429D01*
X15837857Y-13932857D01*
X15837857Y-13675714D01*
X16109286Y-13961429D02*
X16080714Y-13975714D01*
X16023571Y-13975714D01*
X15995000Y-13961429D01*
X15980714Y-13932857D01*
X15980714Y-13818571D01*
X15995000Y-13790000D01*
X16023571Y-13775714D01*
X16080714Y-13775714D01*
X16109286Y-13790000D01*
X16123571Y-13818571D01*
X16123571Y-13847143D01*
X15980714Y-13875714D01*
X16237857Y-13961429D02*
X16266428Y-13975714D01*
X16323571Y-13975714D01*
X16352143Y-13961429D01*
X16366428Y-13932857D01*
X16366428Y-13918571D01*
X16352143Y-13890000D01*
X16323571Y-13875714D01*
X16280714Y-13875714D01*
X16252143Y-13861429D01*
X16237857Y-13832857D01*
X16237857Y-13818571D01*
X16252143Y-13790000D01*
X16280714Y-13775714D01*
X16323571Y-13775714D01*
X16352143Y-13790000D01*
X16466428Y-14090000D02*
X16480714Y-14075714D01*
X16509286Y-14032857D01*
X16523571Y-14004286D01*
X16537857Y-13961429D01*
X16552143Y-13890000D01*
X16552143Y-13832857D01*
X16537857Y-13761429D01*
X16523571Y-13718571D01*
X16509286Y-13690000D01*
X16480714Y-13647143D01*
X16466428Y-13632857D01*
X9995000Y-14236000D02*
G75*
G03X9995000Y-14236000I-38100J0D01*
G01*
X10323571Y-14071714D02*
X10352143Y-14071714D01*
X10380714Y-14086000D01*
X10395000Y-14100286D01*
X10409286Y-14128857D01*
X10423571Y-14186000D01*
X10423571Y-14257429D01*
X10409286Y-14314571D01*
X10395000Y-14343143D01*
X10380714Y-14357429D01*
X10352143Y-14371714D01*
X10323571Y-14371714D01*
X10295000Y-14357429D01*
X10280714Y-14343143D01*
X10266429Y-14314571D01*
X10252143Y-14257429D01*
X10252143Y-14186000D01*
X10266429Y-14128857D01*
X10280714Y-14100286D01*
X10295000Y-14086000D01*
X10323571Y-14071714D01*
X10552143Y-14343143D02*
X10566429Y-14357429D01*
X10552143Y-14371714D01*
X10537857Y-14357429D01*
X10552143Y-14343143D01*
X10552143Y-14371714D01*
X10666428Y-14071714D02*
X10866428Y-14071714D01*
X10737857Y-14371714D01*
X11109286Y-14071714D02*
X11052143Y-14071714D01*
X11023571Y-14086000D01*
X11009286Y-14100286D01*
X10980714Y-14143143D01*
X10966429Y-14200286D01*
X10966429Y-14314571D01*
X10980714Y-14343143D01*
X10995000Y-14357429D01*
X11023571Y-14371714D01*
X11080714Y-14371714D01*
X11109286Y-14357429D01*
X11123571Y-14343143D01*
X11137857Y-14314571D01*
X11137857Y-14243143D01*
X11123571Y-14214571D01*
X11109286Y-14200286D01*
X11080714Y-14186000D01*
X11023571Y-14186000D01*
X10995000Y-14200286D01*
X10980714Y-14214571D01*
X10966429Y-14243143D01*
X11266428Y-14371714D02*
X11266428Y-14171714D01*
X11266428Y-14200286D02*
X11280714Y-14186000D01*
X11309286Y-14171714D01*
X11352143Y-14171714D01*
X11380714Y-14186000D01*
X11395000Y-14214571D01*
X11395000Y-14371714D01*
X11395000Y-14214571D02*
X11409286Y-14186000D01*
X11437857Y-14171714D01*
X11480714Y-14171714D01*
X11509286Y-14186000D01*
X11523571Y-14214571D01*
X11523571Y-14371714D01*
X11666428Y-14371714D02*
X11666428Y-14171714D01*
X11666428Y-14200286D02*
X11680714Y-14186000D01*
X11709286Y-14171714D01*
X11752143Y-14171714D01*
X11780714Y-14186000D01*
X11795000Y-14214571D01*
X11795000Y-14371714D01*
X11795000Y-14214571D02*
X11809286Y-14186000D01*
X11837857Y-14171714D01*
X11880714Y-14171714D01*
X11909286Y-14186000D01*
X11923571Y-14214571D01*
X11923571Y-14371714D01*
X12509286Y-14057429D02*
X12252143Y-14443143D01*
X12895000Y-14071714D02*
X12923571Y-14071714D01*
X12952143Y-14086000D01*
X12966428Y-14100286D01*
X12980714Y-14128857D01*
X12995000Y-14186000D01*
X12995000Y-14257429D01*
X12980714Y-14314571D01*
X12966428Y-14343143D01*
X12952143Y-14357429D01*
X12923571Y-14371714D01*
X12895000Y-14371714D01*
X12866428Y-14357429D01*
X12852143Y-14343143D01*
X12837857Y-14314571D01*
X12823571Y-14257429D01*
X12823571Y-14186000D01*
X12837857Y-14128857D01*
X12852143Y-14100286D01*
X12866428Y-14086000D01*
X12895000Y-14071714D01*
X13123571Y-14343143D02*
X13137857Y-14357429D01*
X13123571Y-14371714D01*
X13109286Y-14357429D01*
X13123571Y-14343143D01*
X13123571Y-14371714D01*
X13323571Y-14071714D02*
X13352143Y-14071714D01*
X13380714Y-14086000D01*
X13395000Y-14100286D01*
X13409285Y-14128857D01*
X13423571Y-14186000D01*
X13423571Y-14257429D01*
X13409285Y-14314571D01*
X13395000Y-14343143D01*
X13380714Y-14357429D01*
X13352143Y-14371714D01*
X13323571Y-14371714D01*
X13295000Y-14357429D01*
X13280714Y-14343143D01*
X13266428Y-14314571D01*
X13252143Y-14257429D01*
X13252143Y-14186000D01*
X13266428Y-14128857D01*
X13280714Y-14100286D01*
X13295000Y-14086000D01*
X13323571Y-14071714D01*
X13523571Y-14071714D02*
X13709285Y-14071714D01*
X13609285Y-14186000D01*
X13652143Y-14186000D01*
X13680714Y-14200286D01*
X13695000Y-14214571D01*
X13709285Y-14243143D01*
X13709285Y-14314571D01*
X13695000Y-14343143D01*
X13680714Y-14357429D01*
X13652143Y-14371714D01*
X13566428Y-14371714D01*
X13537857Y-14357429D01*
X13523571Y-14343143D01*
X13895000Y-14071714D02*
X13923571Y-14071714D01*
X13952143Y-14086000D01*
X13966428Y-14100286D01*
X13980714Y-14128857D01*
X13995000Y-14186000D01*
X13995000Y-14257429D01*
X13980714Y-14314571D01*
X13966428Y-14343143D01*
X13952143Y-14357429D01*
X13923571Y-14371714D01*
X13895000Y-14371714D01*
X13866428Y-14357429D01*
X13852143Y-14343143D01*
X13837857Y-14314571D01*
X13823571Y-14257429D01*
X13823571Y-14186000D01*
X13837857Y-14128857D01*
X13852143Y-14100286D01*
X13866428Y-14086000D01*
X13895000Y-14071714D01*
X14109286Y-14071714D02*
X14109286Y-14128857D01*
X14223571Y-14071714D02*
X14223571Y-14128857D01*
X14666428Y-14486000D02*
X14652143Y-14471714D01*
X14623571Y-14428857D01*
X14609285Y-14400286D01*
X14595000Y-14357429D01*
X14580714Y-14286000D01*
X14580714Y-14228857D01*
X14595000Y-14157429D01*
X14609285Y-14114571D01*
X14623571Y-14086000D01*
X14652143Y-14043143D01*
X14666428Y-14028857D01*
X14766428Y-14100286D02*
X14780714Y-14086000D01*
X14809285Y-14071714D01*
X14880714Y-14071714D01*
X14909285Y-14086000D01*
X14923571Y-14100286D01*
X14937857Y-14128857D01*
X14937857Y-14157429D01*
X14923571Y-14200286D01*
X14752143Y-14371714D01*
X14937857Y-14371714D01*
X15195000Y-14071714D02*
X15137857Y-14071714D01*
X15109285Y-14086000D01*
X15095000Y-14100286D01*
X15066428Y-14143143D01*
X15052143Y-14200286D01*
X15052143Y-14314571D01*
X15066428Y-14343143D01*
X15080714Y-14357429D01*
X15109285Y-14371714D01*
X15166428Y-14371714D01*
X15195000Y-14357429D01*
X15209285Y-14343143D01*
X15223571Y-14314571D01*
X15223571Y-14243143D01*
X15209285Y-14214571D01*
X15195000Y-14200286D01*
X15166428Y-14186000D01*
X15109285Y-14186000D01*
X15080714Y-14200286D01*
X15066428Y-14214571D01*
X15052143Y-14243143D01*
X15580714Y-14371714D02*
X15580714Y-14071714D01*
X15709285Y-14371714D02*
X15709285Y-14214571D01*
X15695000Y-14186000D01*
X15666428Y-14171714D01*
X15623571Y-14171714D01*
X15595000Y-14186000D01*
X15580714Y-14200286D01*
X15895000Y-14371714D02*
X15866428Y-14357429D01*
X15852143Y-14343143D01*
X15837857Y-14314571D01*
X15837857Y-14228857D01*
X15852143Y-14200286D01*
X15866428Y-14186000D01*
X15895000Y-14171714D01*
X15937857Y-14171714D01*
X15966428Y-14186000D01*
X15980714Y-14200286D01*
X15995000Y-14228857D01*
X15995000Y-14314571D01*
X15980714Y-14343143D01*
X15966428Y-14357429D01*
X15937857Y-14371714D01*
X15895000Y-14371714D01*
X16166428Y-14371714D02*
X16137857Y-14357429D01*
X16123571Y-14328857D01*
X16123571Y-14071714D01*
X16395000Y-14357429D02*
X16366428Y-14371714D01*
X16309286Y-14371714D01*
X16280714Y-14357429D01*
X16266428Y-14328857D01*
X16266428Y-14214571D01*
X16280714Y-14186000D01*
X16309286Y-14171714D01*
X16366428Y-14171714D01*
X16395000Y-14186000D01*
X16409286Y-14214571D01*
X16409286Y-14243143D01*
X16266428Y-14271714D01*
X16523571Y-14357429D02*
X16552143Y-14371714D01*
X16609286Y-14371714D01*
X16637857Y-14357429D01*
X16652143Y-14328857D01*
X16652143Y-14314571D01*
X16637857Y-14286000D01*
X16609286Y-14271714D01*
X16566428Y-14271714D01*
X16537857Y-14257429D01*
X16523571Y-14228857D01*
X16523571Y-14214571D01*
X16537857Y-14186000D01*
X16566428Y-14171714D01*
X16609286Y-14171714D01*
X16637857Y-14186000D01*
X16752143Y-14486000D02*
X16766428Y-14471714D01*
X16795000Y-14428857D01*
X16809286Y-14400286D01*
X16823571Y-14357429D01*
X16837857Y-14286000D01*
X16837857Y-14228857D01*
X16823571Y-14157429D01*
X16809286Y-14114571D01*
X16795000Y-14086000D01*
X16766428Y-14043143D01*
X16752143Y-14028857D01*
X9952500Y-14589500D02*
X9952500Y-14674500D01*
X9910000Y-14632000D02*
X9995000Y-14632000D01*
X10323571Y-14467714D02*
X10352143Y-14467714D01*
X10380714Y-14482000D01*
X10395000Y-14496286D01*
X10409286Y-14524857D01*
X10423571Y-14582000D01*
X10423571Y-14653429D01*
X10409286Y-14710571D01*
X10395000Y-14739143D01*
X10380714Y-14753429D01*
X10352143Y-14767714D01*
X10323571Y-14767714D01*
X10295000Y-14753429D01*
X10280714Y-14739143D01*
X10266429Y-14710571D01*
X10252143Y-14653429D01*
X10252143Y-14582000D01*
X10266429Y-14524857D01*
X10280714Y-14496286D01*
X10295000Y-14482000D01*
X10323571Y-14467714D01*
X10552143Y-14739143D02*
X10566429Y-14753429D01*
X10552143Y-14767714D01*
X10537857Y-14753429D01*
X10552143Y-14739143D01*
X10552143Y-14767714D01*
X10737857Y-14596286D02*
X10709286Y-14582000D01*
X10695000Y-14567714D01*
X10680714Y-14539143D01*
X10680714Y-14524857D01*
X10695000Y-14496286D01*
X10709286Y-14482000D01*
X10737857Y-14467714D01*
X10795000Y-14467714D01*
X10823571Y-14482000D01*
X10837857Y-14496286D01*
X10852143Y-14524857D01*
X10852143Y-14539143D01*
X10837857Y-14567714D01*
X10823571Y-14582000D01*
X10795000Y-14596286D01*
X10737857Y-14596286D01*
X10709286Y-14610571D01*
X10695000Y-14624857D01*
X10680714Y-14653429D01*
X10680714Y-14710571D01*
X10695000Y-14739143D01*
X10709286Y-14753429D01*
X10737857Y-14767714D01*
X10795000Y-14767714D01*
X10823571Y-14753429D01*
X10837857Y-14739143D01*
X10852143Y-14710571D01*
X10852143Y-14653429D01*
X10837857Y-14624857D01*
X10823571Y-14610571D01*
X10795000Y-14596286D01*
X11123571Y-14467714D02*
X10980714Y-14467714D01*
X10966429Y-14610571D01*
X10980714Y-14596286D01*
X11009286Y-14582000D01*
X11080714Y-14582000D01*
X11109286Y-14596286D01*
X11123571Y-14610571D01*
X11137857Y-14639143D01*
X11137857Y-14710571D01*
X11123571Y-14739143D01*
X11109286Y-14753429D01*
X11080714Y-14767714D01*
X11009286Y-14767714D01*
X10980714Y-14753429D01*
X10966429Y-14739143D01*
X11266428Y-14767714D02*
X11266428Y-14567714D01*
X11266428Y-14596286D02*
X11280714Y-14582000D01*
X11309286Y-14567714D01*
X11352143Y-14567714D01*
X11380714Y-14582000D01*
X11395000Y-14610571D01*
X11395000Y-14767714D01*
X11395000Y-14610571D02*
X11409286Y-14582000D01*
X11437857Y-14567714D01*
X11480714Y-14567714D01*
X11509286Y-14582000D01*
X11523571Y-14610571D01*
X11523571Y-14767714D01*
X11666428Y-14767714D02*
X11666428Y-14567714D01*
X11666428Y-14596286D02*
X11680714Y-14582000D01*
X11709286Y-14567714D01*
X11752143Y-14567714D01*
X11780714Y-14582000D01*
X11795000Y-14610571D01*
X11795000Y-14767714D01*
X11795000Y-14610571D02*
X11809286Y-14582000D01*
X11837857Y-14567714D01*
X11880714Y-14567714D01*
X11909286Y-14582000D01*
X11923571Y-14610571D01*
X11923571Y-14767714D01*
X12509286Y-14453429D02*
X12252143Y-14839143D01*
X12895000Y-14467714D02*
X12923571Y-14467714D01*
X12952143Y-14482000D01*
X12966428Y-14496286D01*
X12980714Y-14524857D01*
X12995000Y-14582000D01*
X12995000Y-14653429D01*
X12980714Y-14710571D01*
X12966428Y-14739143D01*
X12952143Y-14753429D01*
X12923571Y-14767714D01*
X12895000Y-14767714D01*
X12866428Y-14753429D01*
X12852143Y-14739143D01*
X12837857Y-14710571D01*
X12823571Y-14653429D01*
X12823571Y-14582000D01*
X12837857Y-14524857D01*
X12852143Y-14496286D01*
X12866428Y-14482000D01*
X12895000Y-14467714D01*
X13123571Y-14739143D02*
X13137857Y-14753429D01*
X13123571Y-14767714D01*
X13109286Y-14753429D01*
X13123571Y-14739143D01*
X13123571Y-14767714D01*
X13323571Y-14467714D02*
X13352143Y-14467714D01*
X13380714Y-14482000D01*
X13395000Y-14496286D01*
X13409285Y-14524857D01*
X13423571Y-14582000D01*
X13423571Y-14653429D01*
X13409285Y-14710571D01*
X13395000Y-14739143D01*
X13380714Y-14753429D01*
X13352143Y-14767714D01*
X13323571Y-14767714D01*
X13295000Y-14753429D01*
X13280714Y-14739143D01*
X13266428Y-14710571D01*
X13252143Y-14653429D01*
X13252143Y-14582000D01*
X13266428Y-14524857D01*
X13280714Y-14496286D01*
X13295000Y-14482000D01*
X13323571Y-14467714D01*
X13523571Y-14467714D02*
X13709285Y-14467714D01*
X13609285Y-14582000D01*
X13652143Y-14582000D01*
X13680714Y-14596286D01*
X13695000Y-14610571D01*
X13709285Y-14639143D01*
X13709285Y-14710571D01*
X13695000Y-14739143D01*
X13680714Y-14753429D01*
X13652143Y-14767714D01*
X13566428Y-14767714D01*
X13537857Y-14753429D01*
X13523571Y-14739143D01*
X13809285Y-14467714D02*
X13995000Y-14467714D01*
X13895000Y-14582000D01*
X13937857Y-14582000D01*
X13966428Y-14596286D01*
X13980714Y-14610571D01*
X13995000Y-14639143D01*
X13995000Y-14710571D01*
X13980714Y-14739143D01*
X13966428Y-14753429D01*
X13937857Y-14767714D01*
X13852143Y-14767714D01*
X13823571Y-14753429D01*
X13809285Y-14739143D01*
X14109286Y-14467714D02*
X14109286Y-14524857D01*
X14223571Y-14467714D02*
X14223571Y-14524857D01*
X14666428Y-14882000D02*
X14652143Y-14867714D01*
X14623571Y-14824857D01*
X14609285Y-14796286D01*
X14595000Y-14753429D01*
X14580714Y-14682000D01*
X14580714Y-14624857D01*
X14595000Y-14553429D01*
X14609285Y-14510571D01*
X14623571Y-14482000D01*
X14652143Y-14439143D01*
X14666428Y-14424857D01*
X14795000Y-14767714D02*
X14852143Y-14767714D01*
X14880714Y-14753429D01*
X14895000Y-14739143D01*
X14923571Y-14696286D01*
X14937857Y-14639143D01*
X14937857Y-14524857D01*
X14923571Y-14496286D01*
X14909285Y-14482000D01*
X14880714Y-14467714D01*
X14823571Y-14467714D01*
X14795000Y-14482000D01*
X14780714Y-14496286D01*
X14766428Y-14524857D01*
X14766428Y-14596286D01*
X14780714Y-14624857D01*
X14795000Y-14639143D01*
X14823571Y-14653429D01*
X14880714Y-14653429D01*
X14909285Y-14639143D01*
X14923571Y-14624857D01*
X14937857Y-14596286D01*
X15295000Y-14767714D02*
X15295000Y-14467714D01*
X15423571Y-14767714D02*
X15423571Y-14610571D01*
X15409285Y-14582000D01*
X15380714Y-14567714D01*
X15337857Y-14567714D01*
X15309285Y-14582000D01*
X15295000Y-14596286D01*
X15609285Y-14767714D02*
X15580714Y-14753429D01*
X15566428Y-14739143D01*
X15552143Y-14710571D01*
X15552143Y-14624857D01*
X15566428Y-14596286D01*
X15580714Y-14582000D01*
X15609285Y-14567714D01*
X15652143Y-14567714D01*
X15680714Y-14582000D01*
X15695000Y-14596286D01*
X15709285Y-14624857D01*
X15709285Y-14710571D01*
X15695000Y-14739143D01*
X15680714Y-14753429D01*
X15652143Y-14767714D01*
X15609285Y-14767714D01*
X15880714Y-14767714D02*
X15852143Y-14753429D01*
X15837857Y-14724857D01*
X15837857Y-14467714D01*
X16109286Y-14753429D02*
X16080714Y-14767714D01*
X16023571Y-14767714D01*
X15995000Y-14753429D01*
X15980714Y-14724857D01*
X15980714Y-14610571D01*
X15995000Y-14582000D01*
X16023571Y-14567714D01*
X16080714Y-14567714D01*
X16109286Y-14582000D01*
X16123571Y-14610571D01*
X16123571Y-14639143D01*
X15980714Y-14667714D01*
X16237857Y-14753429D02*
X16266428Y-14767714D01*
X16323571Y-14767714D01*
X16352143Y-14753429D01*
X16366428Y-14724857D01*
X16366428Y-14710571D01*
X16352143Y-14682000D01*
X16323571Y-14667714D01*
X16280714Y-14667714D01*
X16252143Y-14653429D01*
X16237857Y-14624857D01*
X16237857Y-14610571D01*
X16252143Y-14582000D01*
X16280714Y-14567714D01*
X16323571Y-14567714D01*
X16352143Y-14582000D01*
X16466428Y-14882000D02*
X16480714Y-14867714D01*
X16509286Y-14824857D01*
X16523571Y-14796286D01*
X16537857Y-14753429D01*
X16552143Y-14682000D01*
X16552143Y-14624857D01*
X16537857Y-14553429D01*
X16523571Y-14510571D01*
X16509286Y-14482000D01*
X16480714Y-14439143D01*
X16466428Y-14424857D01*
X9980121Y-15063921D02*
X9980121Y-14992079D01*
X9908279Y-14992079D01*
X9908279Y-15063921D01*
X9980121Y-15063921D01*
X10423571Y-15163714D02*
X10252143Y-15163714D01*
X10337857Y-15163714D02*
X10337857Y-14863714D01*
X10309286Y-14906571D01*
X10280714Y-14935143D01*
X10252143Y-14949429D01*
X10552143Y-15135143D02*
X10566429Y-15149429D01*
X10552143Y-15163714D01*
X10537857Y-15149429D01*
X10552143Y-15135143D01*
X10552143Y-15163714D01*
X10752143Y-14863714D02*
X10780714Y-14863714D01*
X10809286Y-14878000D01*
X10823571Y-14892286D01*
X10837857Y-14920857D01*
X10852143Y-14978000D01*
X10852143Y-15049429D01*
X10837857Y-15106571D01*
X10823571Y-15135143D01*
X10809286Y-15149429D01*
X10780714Y-15163714D01*
X10752143Y-15163714D01*
X10723571Y-15149429D01*
X10709286Y-15135143D01*
X10695000Y-15106571D01*
X10680714Y-15049429D01*
X10680714Y-14978000D01*
X10695000Y-14920857D01*
X10709286Y-14892286D01*
X10723571Y-14878000D01*
X10752143Y-14863714D01*
X10966429Y-14892286D02*
X10980714Y-14878000D01*
X11009286Y-14863714D01*
X11080714Y-14863714D01*
X11109286Y-14878000D01*
X11123571Y-14892286D01*
X11137857Y-14920857D01*
X11137857Y-14949429D01*
X11123571Y-14992286D01*
X10952143Y-15163714D01*
X11137857Y-15163714D01*
X11266428Y-15163714D02*
X11266428Y-14963714D01*
X11266428Y-14992286D02*
X11280714Y-14978000D01*
X11309286Y-14963714D01*
X11352143Y-14963714D01*
X11380714Y-14978000D01*
X11395000Y-15006571D01*
X11395000Y-15163714D01*
X11395000Y-15006571D02*
X11409286Y-14978000D01*
X11437857Y-14963714D01*
X11480714Y-14963714D01*
X11509286Y-14978000D01*
X11523571Y-15006571D01*
X11523571Y-15163714D01*
X11666428Y-15163714D02*
X11666428Y-14963714D01*
X11666428Y-14992286D02*
X11680714Y-14978000D01*
X11709286Y-14963714D01*
X11752143Y-14963714D01*
X11780714Y-14978000D01*
X11795000Y-15006571D01*
X11795000Y-15163714D01*
X11795000Y-15006571D02*
X11809286Y-14978000D01*
X11837857Y-14963714D01*
X11880714Y-14963714D01*
X11909286Y-14978000D01*
X11923571Y-15006571D01*
X11923571Y-15163714D01*
X12509286Y-14849429D02*
X12252143Y-15235143D01*
X12895000Y-14863714D02*
X12923571Y-14863714D01*
X12952143Y-14878000D01*
X12966428Y-14892286D01*
X12980714Y-14920857D01*
X12995000Y-14978000D01*
X12995000Y-15049429D01*
X12980714Y-15106571D01*
X12966428Y-15135143D01*
X12952143Y-15149429D01*
X12923571Y-15163714D01*
X12895000Y-15163714D01*
X12866428Y-15149429D01*
X12852143Y-15135143D01*
X12837857Y-15106571D01*
X12823571Y-15049429D01*
X12823571Y-14978000D01*
X12837857Y-14920857D01*
X12852143Y-14892286D01*
X12866428Y-14878000D01*
X12895000Y-14863714D01*
X13123571Y-15135143D02*
X13137857Y-15149429D01*
X13123571Y-15163714D01*
X13109286Y-15149429D01*
X13123571Y-15135143D01*
X13123571Y-15163714D01*
X13323571Y-14863714D02*
X13352143Y-14863714D01*
X13380714Y-14878000D01*
X13395000Y-14892286D01*
X13409285Y-14920857D01*
X13423571Y-14978000D01*
X13423571Y-15049429D01*
X13409285Y-15106571D01*
X13395000Y-15135143D01*
X13380714Y-15149429D01*
X13352143Y-15163714D01*
X13323571Y-15163714D01*
X13295000Y-15149429D01*
X13280714Y-15135143D01*
X13266428Y-15106571D01*
X13252143Y-15049429D01*
X13252143Y-14978000D01*
X13266428Y-14920857D01*
X13280714Y-14892286D01*
X13295000Y-14878000D01*
X13323571Y-14863714D01*
X13680714Y-14963714D02*
X13680714Y-15163714D01*
X13609285Y-14849429D02*
X13537857Y-15063714D01*
X13723571Y-15063714D01*
X13895000Y-14863714D02*
X13923571Y-14863714D01*
X13952143Y-14878000D01*
X13966428Y-14892286D01*
X13980714Y-14920857D01*
X13995000Y-14978000D01*
X13995000Y-15049429D01*
X13980714Y-15106571D01*
X13966428Y-15135143D01*
X13952143Y-15149429D01*
X13923571Y-15163714D01*
X13895000Y-15163714D01*
X13866428Y-15149429D01*
X13852143Y-15135143D01*
X13837857Y-15106571D01*
X13823571Y-15049429D01*
X13823571Y-14978000D01*
X13837857Y-14920857D01*
X13852143Y-14892286D01*
X13866428Y-14878000D01*
X13895000Y-14863714D01*
X14109286Y-14863714D02*
X14109286Y-14920857D01*
X14223571Y-14863714D02*
X14223571Y-14920857D01*
X14666428Y-15278000D02*
X14652143Y-15263714D01*
X14623571Y-15220857D01*
X14609285Y-15192286D01*
X14595000Y-15149429D01*
X14580714Y-15078000D01*
X14580714Y-15020857D01*
X14595000Y-14949429D01*
X14609285Y-14906571D01*
X14623571Y-14878000D01*
X14652143Y-14835143D01*
X14666428Y-14820857D01*
X14923571Y-14863714D02*
X14780714Y-14863714D01*
X14766428Y-15006571D01*
X14780714Y-14992286D01*
X14809285Y-14978000D01*
X14880714Y-14978000D01*
X14909285Y-14992286D01*
X14923571Y-15006571D01*
X14937857Y-15035143D01*
X14937857Y-15106571D01*
X14923571Y-15135143D01*
X14909285Y-15149429D01*
X14880714Y-15163714D01*
X14809285Y-15163714D01*
X14780714Y-15149429D01*
X14766428Y-15135143D01*
X15052143Y-14892286D02*
X15066428Y-14878000D01*
X15095000Y-14863714D01*
X15166428Y-14863714D01*
X15195000Y-14878000D01*
X15209285Y-14892286D01*
X15223571Y-14920857D01*
X15223571Y-14949429D01*
X15209285Y-14992286D01*
X15037857Y-15163714D01*
X15223571Y-15163714D01*
X15580714Y-15163714D02*
X15580714Y-14863714D01*
X15709285Y-15163714D02*
X15709285Y-15006571D01*
X15695000Y-14978000D01*
X15666428Y-14963714D01*
X15623571Y-14963714D01*
X15595000Y-14978000D01*
X15580714Y-14992286D01*
X15895000Y-15163714D02*
X15866428Y-15149429D01*
X15852143Y-15135143D01*
X15837857Y-15106571D01*
X15837857Y-15020857D01*
X15852143Y-14992286D01*
X15866428Y-14978000D01*
X15895000Y-14963714D01*
X15937857Y-14963714D01*
X15966428Y-14978000D01*
X15980714Y-14992286D01*
X15995000Y-15020857D01*
X15995000Y-15106571D01*
X15980714Y-15135143D01*
X15966428Y-15149429D01*
X15937857Y-15163714D01*
X15895000Y-15163714D01*
X16166428Y-15163714D02*
X16137857Y-15149429D01*
X16123571Y-15120857D01*
X16123571Y-14863714D01*
X16395000Y-15149429D02*
X16366428Y-15163714D01*
X16309286Y-15163714D01*
X16280714Y-15149429D01*
X16266428Y-15120857D01*
X16266428Y-15006571D01*
X16280714Y-14978000D01*
X16309286Y-14963714D01*
X16366428Y-14963714D01*
X16395000Y-14978000D01*
X16409286Y-15006571D01*
X16409286Y-15035143D01*
X16266428Y-15063714D01*
X16523571Y-15149429D02*
X16552143Y-15163714D01*
X16609286Y-15163714D01*
X16637857Y-15149429D01*
X16652143Y-15120857D01*
X16652143Y-15106571D01*
X16637857Y-15078000D01*
X16609286Y-15063714D01*
X16566428Y-15063714D01*
X16537857Y-15049429D01*
X16523571Y-15020857D01*
X16523571Y-15006571D01*
X16537857Y-14978000D01*
X16566428Y-14963714D01*
X16609286Y-14963714D01*
X16637857Y-14978000D01*
X16752143Y-15278000D02*
X16766428Y-15263714D01*
X16795000Y-15220857D01*
X16809286Y-15192286D01*
X16823571Y-15149429D01*
X16837857Y-15078000D01*
X16837857Y-15020857D01*
X16823571Y-14949429D01*
X16809286Y-14906571D01*
X16795000Y-14878000D01*
X16766428Y-14835143D01*
X16752143Y-14820857D01*
M02*
