<?xml version="1.0" standalone="no"?>
 <!DOCTYPE svg PUBLIC "-//W3C//DTD SVG 1.1//EN" 
 "http://www.w3.org/Graphics/SVG/1.1/DTD/svg11.dtd"> 
<svg xmlns="http://www.w3.org/2000/svg" version="1.1" 
    width="8.62838cm" height="6.00456cm" viewBox="0 0 33970 23640 ">
<title>SVG Picture created as type5-B.SilkS.svg date 2016/05/02 21:04:11 </title>
  <desc>Picture generated by PCBNEW </desc>
<g style="fill:#000000; fill-opacity:1;stroke:#000000; stroke-opacity:1;
stroke-linecap:round; stroke-linejoin:round; "
 transform="translate(0 0) scale(1 1)">
</g>
<g style="fill:#000000; fill-opacity:0.0; 
stroke:#000000; stroke-width:-0.000393701; stroke-opacity:1; 
stroke-linecap:round; stroke-linejoin:round;">
</g>
<g style="fill:#000000; fill-opacity:0.0; 
stroke:#000000; stroke-width:59.0551; stroke-opacity:1; 
stroke-linecap:round; stroke-linejoin:round;">
<path d="M22928 2146
L22928 1752
L22778 1752
L22740 1771
L22722 1790
L22703 1827
L22703 1884
L22722 1921
L22740 1940
L22778 1959
L22928 1959
" />
<path d="M22553 1790
L22534 1771
L22497 1752
L22403 1752
L22365 1771
L22347 1790
L22328 1827
L22328 1865
L22347 1921
L22572 2146
L22328 2146
" />
<path d="M2460 4429
L2460 2460
" />
<path d="M2460 2460
L7381 2460
" />
<path d="M7381 2460
L7381 4429
" />
<path d="M7381 4429
L2460 4429
" />
<path d="M14271 4429
L14271 2460
" />
<path d="M14271 2460
L27559 2460
" />
<path d="M27559 2460
L27559 4429
" />
<path d="M27559 4429
L14271 4429
" />
</g>
<g style="fill:#000000; fill-opacity:0.0; 
stroke:#000000; stroke-width:492.126; stroke-opacity:1; 
stroke-linecap:round; stroke-linejoin:round;">
<path d="M2952 3838
L2952 4035
" />
<path d="M3444 2854
L3444 3051
" />
<path d="M3937 3838
L3937 4035
" />
<path d="M4429 2854
L4429 3051
" />
<path d="M4921 3838
L4921 4035
" />
<path d="M5413 2854
L5413 3051
" />
<path d="M5905 3838
L5905 4035
" />
<path d="M6397 2854
L6397 3051
" />
<path d="M6889 3838
L6889 4035
" />
<path d="M14763 3838
L14763 4035
" />
<path d="M15255 2854
L15255 3051
" />
<path d="M15748 3838
L15748 4035
" />
<path d="M16240 2854
L16240 3051
" />
<path d="M16732 3838
L16732 4035
" />
<path d="M17224 2854
L17224 3051
" />
<path d="M17716 3838
L17716 4035
" />
<path d="M18208 2854
L18208 3051
" />
<path d="M18700 3838
L18700 4035
" />
<path d="M19192 2854
L19192 3051
" />
<path d="M19685 3838
L19685 4035
" />
<path d="M20177 2854
L20177 3051
" />
<path d="M20669 3838
L20669 4035
" />
<path d="M21161 2854
L21161 3051
" />
<path d="M21653 3838
L21653 4035
" />
<path d="M22145 2854
L22145 3051
" />
<path d="M22637 3838
L22637 4035
" />
<path d="M23129 2854
L23129 3051
" />
<path d="M23622 3838
L23622 4035
" />
<path d="M24114 2854
L24114 3051
" />
<path d="M24606 3838
L24606 4035
" />
<path d="M25098 2854
L25098 3051
" />
<path d="M25590 3838
L25590 4035
" />
<path d="M26082 2854
L26082 3051
" />
<path d="M26574 3838
L26574 4035
" />
<path d="M27066 2854
L27066 3051
" />
</g> 
</svg>
