%FSLAX45Y45*%
G04 Gerber Fmt 4.5, Leading zero omitted, Abs format (unit mm)*
G04 Created by KiCad (PCBNEW 4.0.2-4+6225~38~ubuntu14.04.1-stable) date lun 02 mag 2016 14:50:10 CEST*
%MOMM*%
G01*
G04 APERTURE LIST*
%ADD10C,0.127000*%
%ADD11C,0.100000*%
%ADD12C,0.200000*%
%ADD13C,0.300000*%
G04 APERTURE END LIST*
D10*
D11*
X18375000Y-12000000D02*
X10000000Y-12000000D01*
X18375000Y-6250000D02*
X10000000Y-6250000D01*
X18375000Y-12000000D02*
X18375000Y-6250000D01*
X10000000Y-6250000D02*
X10000000Y-12000000D01*
D12*
X13341850Y-9540610D02*
X13405350Y-9604110D01*
X13405350Y-9540610D02*
X13341850Y-9604110D01*
X13341850Y-9672690D02*
X13405350Y-9736190D01*
X13405350Y-9672690D02*
X13341850Y-9736190D01*
X10542500Y-7000000D02*
G75*
G03X10542500Y-7000000I-42500J0D01*
G01*
X10667500Y-6750000D02*
G75*
G03X10667500Y-6750000I-42500J0D01*
G01*
X10792500Y-7000000D02*
G75*
G03X10792500Y-7000000I-42500J0D01*
G01*
X10917500Y-6750000D02*
G75*
G03X10917500Y-6750000I-42500J0D01*
G01*
X11042500Y-7000000D02*
G75*
G03X11042500Y-7000000I-42500J0D01*
G01*
X11167500Y-6750000D02*
G75*
G03X11167500Y-6750000I-42500J0D01*
G01*
X11292500Y-7000000D02*
G75*
G03X11292500Y-7000000I-42500J0D01*
G01*
X11417500Y-6750000D02*
G75*
G03X11417500Y-6750000I-42500J0D01*
G01*
X11542500Y-7000000D02*
G75*
G03X11542500Y-7000000I-42500J0D01*
G01*
X13542500Y-7000000D02*
G75*
G03X13542500Y-7000000I-42500J0D01*
G01*
X13667500Y-6750000D02*
G75*
G03X13667500Y-6750000I-42500J0D01*
G01*
X13792500Y-7000000D02*
G75*
G03X13792500Y-7000000I-42500J0D01*
G01*
X13917500Y-6750000D02*
G75*
G03X13917500Y-6750000I-42500J0D01*
G01*
X14042500Y-7000000D02*
G75*
G03X14042500Y-7000000I-42500J0D01*
G01*
X14167500Y-6750000D02*
G75*
G03X14167500Y-6750000I-42500J0D01*
G01*
X14292500Y-7000000D02*
G75*
G03X14292500Y-7000000I-42500J0D01*
G01*
X14417500Y-6750000D02*
G75*
G03X14417500Y-6750000I-42500J0D01*
G01*
X14542500Y-7000000D02*
G75*
G03X14542500Y-7000000I-42500J0D01*
G01*
X14667500Y-6750000D02*
G75*
G03X14667500Y-6750000I-42500J0D01*
G01*
X14792500Y-7000000D02*
G75*
G03X14792500Y-7000000I-42500J0D01*
G01*
X14917500Y-6750000D02*
G75*
G03X14917500Y-6750000I-42500J0D01*
G01*
X15042500Y-7000000D02*
G75*
G03X15042500Y-7000000I-42500J0D01*
G01*
X15167500Y-6750000D02*
G75*
G03X15167500Y-6750000I-42500J0D01*
G01*
X15292500Y-7000000D02*
G75*
G03X15292500Y-7000000I-42500J0D01*
G01*
X15417500Y-6750000D02*
G75*
G03X15417500Y-6750000I-42500J0D01*
G01*
X15542500Y-7000000D02*
G75*
G03X15542500Y-7000000I-42500J0D01*
G01*
X15667500Y-6750000D02*
G75*
G03X15667500Y-6750000I-42500J0D01*
G01*
X15792500Y-7000000D02*
G75*
G03X15792500Y-7000000I-42500J0D01*
G01*
X15917500Y-6750000D02*
G75*
G03X15917500Y-6750000I-42500J0D01*
G01*
X16042500Y-7000000D02*
G75*
G03X16042500Y-7000000I-42500J0D01*
G01*
X16167500Y-6750000D02*
G75*
G03X16167500Y-6750000I-42500J0D01*
G01*
X16292500Y-7000000D02*
G75*
G03X16292500Y-7000000I-42500J0D01*
G01*
X16417500Y-6750000D02*
G75*
G03X16417500Y-6750000I-42500J0D01*
G01*
X16542500Y-7000000D02*
G75*
G03X16542500Y-7000000I-42500J0D01*
G01*
X16667500Y-6750000D02*
G75*
G03X16667500Y-6750000I-42500J0D01*
G01*
X11875000Y-8800200D02*
X11875000Y-8901800D01*
X11824200Y-8851000D02*
X11925800Y-8851000D01*
X11875000Y-10324200D02*
X11875000Y-10425800D01*
X11824200Y-10375000D02*
X11925800Y-10375000D01*
X12129000Y-8800200D02*
X12129000Y-8901800D01*
X12078200Y-8851000D02*
X12179800Y-8851000D01*
X12129000Y-10324200D02*
X12129000Y-10425800D01*
X12078200Y-10375000D02*
X12179800Y-10375000D01*
X12383000Y-8800200D02*
X12383000Y-8901800D01*
X12332200Y-8851000D02*
X12433800Y-8851000D01*
X12383000Y-10324200D02*
X12383000Y-10425800D01*
X12332200Y-10375000D02*
X12433800Y-10375000D01*
X12637000Y-8800200D02*
X12637000Y-8901800D01*
X12586200Y-8851000D02*
X12687800Y-8851000D01*
X12637000Y-10324200D02*
X12637000Y-10425800D01*
X12586200Y-10375000D02*
X12687800Y-10375000D01*
X12891000Y-8800200D02*
X12891000Y-8901800D01*
X12840200Y-8851000D02*
X12941800Y-8851000D01*
X12891000Y-10324200D02*
X12891000Y-10425800D01*
X12840200Y-10375000D02*
X12941800Y-10375000D01*
X13145000Y-8800200D02*
X13145000Y-8901800D01*
X13094200Y-8851000D02*
X13195800Y-8851000D01*
X13145000Y-10324200D02*
X13145000Y-10425800D01*
X13094200Y-10375000D02*
X13195800Y-10375000D01*
X13399000Y-8800200D02*
X13399000Y-8901800D01*
X13348200Y-8851000D02*
X13449800Y-8851000D01*
X13399000Y-10324200D02*
X13399000Y-10425800D01*
X13348200Y-10375000D02*
X13449800Y-10375000D01*
X13653000Y-8800200D02*
X13653000Y-8901800D01*
X13602200Y-8851000D02*
X13703800Y-8851000D01*
X13653000Y-10324200D02*
X13653000Y-10425800D01*
X13602200Y-10375000D02*
X13703800Y-10375000D01*
X13907000Y-8800200D02*
X13907000Y-8901800D01*
X13856200Y-8851000D02*
X13957800Y-8851000D01*
X13907000Y-10324200D02*
X13907000Y-10425800D01*
X13856200Y-10375000D02*
X13957800Y-10375000D01*
X14161000Y-8800200D02*
X14161000Y-8901800D01*
X14110200Y-8851000D02*
X14211800Y-8851000D01*
X14161000Y-10324200D02*
X14161000Y-10425800D01*
X14110200Y-10375000D02*
X14211800Y-10375000D01*
X14415000Y-8800200D02*
X14415000Y-8901800D01*
X14364200Y-8851000D02*
X14465800Y-8851000D01*
X14415000Y-10324200D02*
X14415000Y-10425800D01*
X14364200Y-10375000D02*
X14465800Y-10375000D01*
X14669000Y-8800200D02*
X14669000Y-8901800D01*
X14618200Y-8851000D02*
X14719800Y-8851000D01*
X14669000Y-10324200D02*
X14669000Y-10425800D01*
X14618200Y-10375000D02*
X14719800Y-10375000D01*
X14923000Y-8800200D02*
X14923000Y-8901800D01*
X14872200Y-8851000D02*
X14973800Y-8851000D01*
X14923000Y-10324200D02*
X14923000Y-10425800D01*
X14872200Y-10375000D02*
X14973800Y-10375000D01*
X15177000Y-8800200D02*
X15177000Y-8901800D01*
X15126200Y-8851000D02*
X15227800Y-8851000D01*
X15177000Y-9308200D02*
X15177000Y-9409800D01*
X15126200Y-9359000D02*
X15227800Y-9359000D01*
X15177000Y-9562200D02*
X15177000Y-9663800D01*
X15126200Y-9613000D02*
X15227800Y-9613000D01*
X15177000Y-10324200D02*
X15177000Y-10425800D01*
X15126200Y-10375000D02*
X15227800Y-10375000D01*
X15431000Y-8800200D02*
X15431000Y-8901800D01*
X15380200Y-8851000D02*
X15481800Y-8851000D01*
X15431000Y-9308200D02*
X15431000Y-9409800D01*
X15380200Y-9359000D02*
X15481800Y-9359000D01*
X15431000Y-9562200D02*
X15431000Y-9663800D01*
X15380200Y-9613000D02*
X15481800Y-9613000D01*
X15431000Y-10324200D02*
X15431000Y-10425800D01*
X15380200Y-10375000D02*
X15481800Y-10375000D01*
X15685000Y-8800200D02*
X15685000Y-8901800D01*
X15634200Y-8851000D02*
X15735800Y-8851000D01*
X15685000Y-9308200D02*
X15685000Y-9409800D01*
X15634200Y-9359000D02*
X15735800Y-9359000D01*
X15685000Y-9562200D02*
X15685000Y-9663800D01*
X15634200Y-9613000D02*
X15735800Y-9613000D01*
X15685000Y-10324200D02*
X15685000Y-10425800D01*
X15634200Y-10375000D02*
X15735800Y-10375000D01*
X15939000Y-8800200D02*
X15939000Y-8901800D01*
X15888200Y-8851000D02*
X15989800Y-8851000D01*
X15939000Y-9308200D02*
X15939000Y-9409800D01*
X15888200Y-9359000D02*
X15989800Y-9359000D01*
X15939000Y-9562200D02*
X15939000Y-9663800D01*
X15888200Y-9613000D02*
X15989800Y-9613000D01*
X15939000Y-9816200D02*
X15939000Y-9917800D01*
X15888200Y-9867000D02*
X15989800Y-9867000D01*
X15939000Y-10324200D02*
X15939000Y-10425800D01*
X15888200Y-10375000D02*
X15989800Y-10375000D01*
X16193000Y-8800200D02*
X16193000Y-8901800D01*
X16142200Y-8851000D02*
X16243800Y-8851000D01*
X16193000Y-10324200D02*
X16193000Y-10425800D01*
X16142200Y-10375000D02*
X16243800Y-10375000D01*
X16447000Y-8800200D02*
X16447000Y-8901800D01*
X16396200Y-8851000D02*
X16497800Y-8851000D01*
X16447000Y-10324200D02*
X16447000Y-10425800D01*
X16396200Y-10375000D02*
X16497800Y-10375000D01*
X16701000Y-8800200D02*
X16701000Y-8901800D01*
X16650200Y-8851000D02*
X16751800Y-8851000D01*
X16701000Y-9308200D02*
X16701000Y-9409800D01*
X16650200Y-9359000D02*
X16751800Y-9359000D01*
X16701000Y-9562200D02*
X16701000Y-9663800D01*
X16650200Y-9613000D02*
X16751800Y-9613000D01*
X16701000Y-9816200D02*
X16701000Y-9917800D01*
X16650200Y-9867000D02*
X16751800Y-9867000D01*
X16701000Y-10324200D02*
X16701000Y-10425800D01*
X16650200Y-10375000D02*
X16751800Y-10375000D01*
D13*
X10266429Y-12470714D02*
X10266429Y-12170714D01*
X10337857Y-12170714D01*
X10380714Y-12185000D01*
X10409286Y-12213571D01*
X10423571Y-12242143D01*
X10437857Y-12299286D01*
X10437857Y-12342143D01*
X10423571Y-12399286D01*
X10409286Y-12427857D01*
X10380714Y-12456429D01*
X10337857Y-12470714D01*
X10266429Y-12470714D01*
X10566429Y-12470714D02*
X10566429Y-12270714D01*
X10566429Y-12327857D02*
X10580714Y-12299286D01*
X10595000Y-12285000D01*
X10623571Y-12270714D01*
X10652143Y-12270714D01*
X10752143Y-12470714D02*
X10752143Y-12270714D01*
X10752143Y-12170714D02*
X10737857Y-12185000D01*
X10752143Y-12199286D01*
X10766429Y-12185000D01*
X10752143Y-12170714D01*
X10752143Y-12199286D01*
X10937857Y-12470714D02*
X10909286Y-12456429D01*
X10895000Y-12427857D01*
X10895000Y-12170714D01*
X11095000Y-12470714D02*
X11066429Y-12456429D01*
X11052143Y-12427857D01*
X11052143Y-12170714D01*
X11437857Y-12470714D02*
X11437857Y-12170714D01*
X11537857Y-12385000D01*
X11637857Y-12170714D01*
X11637857Y-12470714D01*
X11909286Y-12470714D02*
X11909286Y-12313571D01*
X11895000Y-12285000D01*
X11866428Y-12270714D01*
X11809286Y-12270714D01*
X11780714Y-12285000D01*
X11909286Y-12456429D02*
X11880714Y-12470714D01*
X11809286Y-12470714D01*
X11780714Y-12456429D01*
X11766428Y-12427857D01*
X11766428Y-12399286D01*
X11780714Y-12370714D01*
X11809286Y-12356429D01*
X11880714Y-12356429D01*
X11909286Y-12342143D01*
X12052143Y-12270714D02*
X12052143Y-12570714D01*
X12052143Y-12285000D02*
X12080714Y-12270714D01*
X12137857Y-12270714D01*
X12166428Y-12285000D01*
X12180714Y-12299286D01*
X12195000Y-12327857D01*
X12195000Y-12413571D01*
X12180714Y-12442143D01*
X12166428Y-12456429D01*
X12137857Y-12470714D01*
X12080714Y-12470714D01*
X12052143Y-12456429D01*
X12323571Y-12442143D02*
X12337857Y-12456429D01*
X12323571Y-12470714D01*
X12309286Y-12456429D01*
X12323571Y-12442143D01*
X12323571Y-12470714D01*
X12323571Y-12285000D02*
X12337857Y-12299286D01*
X12323571Y-12313571D01*
X12309286Y-12299286D01*
X12323571Y-12285000D01*
X12323571Y-12313571D01*
X9931500Y-12933250D02*
X9995000Y-12996750D01*
X9995000Y-12933250D02*
X9931500Y-12996750D01*
X10323571Y-12800714D02*
X10352143Y-12800714D01*
X10380714Y-12815000D01*
X10395000Y-12829286D01*
X10409286Y-12857857D01*
X10423571Y-12915000D01*
X10423571Y-12986429D01*
X10409286Y-13043571D01*
X10395000Y-13072143D01*
X10380714Y-13086429D01*
X10352143Y-13100714D01*
X10323571Y-13100714D01*
X10295000Y-13086429D01*
X10280714Y-13072143D01*
X10266429Y-13043571D01*
X10252143Y-12986429D01*
X10252143Y-12915000D01*
X10266429Y-12857857D01*
X10280714Y-12829286D01*
X10295000Y-12815000D01*
X10323571Y-12800714D01*
X10552143Y-13072143D02*
X10566429Y-13086429D01*
X10552143Y-13100714D01*
X10537857Y-13086429D01*
X10552143Y-13072143D01*
X10552143Y-13100714D01*
X10823571Y-12800714D02*
X10766428Y-12800714D01*
X10737857Y-12815000D01*
X10723571Y-12829286D01*
X10695000Y-12872143D01*
X10680714Y-12929286D01*
X10680714Y-13043571D01*
X10695000Y-13072143D01*
X10709286Y-13086429D01*
X10737857Y-13100714D01*
X10795000Y-13100714D01*
X10823571Y-13086429D01*
X10837857Y-13072143D01*
X10852143Y-13043571D01*
X10852143Y-12972143D01*
X10837857Y-12943571D01*
X10823571Y-12929286D01*
X10795000Y-12915000D01*
X10737857Y-12915000D01*
X10709286Y-12929286D01*
X10695000Y-12943571D01*
X10680714Y-12972143D01*
X11109286Y-12900714D02*
X11109286Y-13100714D01*
X11037857Y-12786429D02*
X10966429Y-13000714D01*
X11152143Y-13000714D01*
X11266428Y-13100714D02*
X11266428Y-12900714D01*
X11266428Y-12929286D02*
X11280714Y-12915000D01*
X11309286Y-12900714D01*
X11352143Y-12900714D01*
X11380714Y-12915000D01*
X11395000Y-12943571D01*
X11395000Y-13100714D01*
X11395000Y-12943571D02*
X11409286Y-12915000D01*
X11437857Y-12900714D01*
X11480714Y-12900714D01*
X11509286Y-12915000D01*
X11523571Y-12943571D01*
X11523571Y-13100714D01*
X11666428Y-13100714D02*
X11666428Y-12900714D01*
X11666428Y-12929286D02*
X11680714Y-12915000D01*
X11709286Y-12900714D01*
X11752143Y-12900714D01*
X11780714Y-12915000D01*
X11795000Y-12943571D01*
X11795000Y-13100714D01*
X11795000Y-12943571D02*
X11809286Y-12915000D01*
X11837857Y-12900714D01*
X11880714Y-12900714D01*
X11909286Y-12915000D01*
X11923571Y-12943571D01*
X11923571Y-13100714D01*
X12509286Y-12786429D02*
X12252143Y-13172143D01*
X12895000Y-12800714D02*
X12923571Y-12800714D01*
X12952143Y-12815000D01*
X12966428Y-12829286D01*
X12980714Y-12857857D01*
X12995000Y-12915000D01*
X12995000Y-12986429D01*
X12980714Y-13043571D01*
X12966428Y-13072143D01*
X12952143Y-13086429D01*
X12923571Y-13100714D01*
X12895000Y-13100714D01*
X12866428Y-13086429D01*
X12852143Y-13072143D01*
X12837857Y-13043571D01*
X12823571Y-12986429D01*
X12823571Y-12915000D01*
X12837857Y-12857857D01*
X12852143Y-12829286D01*
X12866428Y-12815000D01*
X12895000Y-12800714D01*
X13123571Y-13072143D02*
X13137857Y-13086429D01*
X13123571Y-13100714D01*
X13109286Y-13086429D01*
X13123571Y-13072143D01*
X13123571Y-13100714D01*
X13323571Y-12800714D02*
X13352143Y-12800714D01*
X13380714Y-12815000D01*
X13395000Y-12829286D01*
X13409285Y-12857857D01*
X13423571Y-12915000D01*
X13423571Y-12986429D01*
X13409285Y-13043571D01*
X13395000Y-13072143D01*
X13380714Y-13086429D01*
X13352143Y-13100714D01*
X13323571Y-13100714D01*
X13295000Y-13086429D01*
X13280714Y-13072143D01*
X13266428Y-13043571D01*
X13252143Y-12986429D01*
X13252143Y-12915000D01*
X13266428Y-12857857D01*
X13280714Y-12829286D01*
X13295000Y-12815000D01*
X13323571Y-12800714D01*
X13537857Y-12829286D02*
X13552143Y-12815000D01*
X13580714Y-12800714D01*
X13652143Y-12800714D01*
X13680714Y-12815000D01*
X13695000Y-12829286D01*
X13709285Y-12857857D01*
X13709285Y-12886429D01*
X13695000Y-12929286D01*
X13523571Y-13100714D01*
X13709285Y-13100714D01*
X13980714Y-12800714D02*
X13837857Y-12800714D01*
X13823571Y-12943571D01*
X13837857Y-12929286D01*
X13866428Y-12915000D01*
X13937857Y-12915000D01*
X13966428Y-12929286D01*
X13980714Y-12943571D01*
X13995000Y-12972143D01*
X13995000Y-13043571D01*
X13980714Y-13072143D01*
X13966428Y-13086429D01*
X13937857Y-13100714D01*
X13866428Y-13100714D01*
X13837857Y-13086429D01*
X13823571Y-13072143D01*
X14109286Y-12800714D02*
X14109286Y-12857857D01*
X14223571Y-12800714D02*
X14223571Y-12857857D01*
X14666428Y-13215000D02*
X14652143Y-13200714D01*
X14623571Y-13157857D01*
X14609285Y-13129286D01*
X14595000Y-13086429D01*
X14580714Y-13015000D01*
X14580714Y-12957857D01*
X14595000Y-12886429D01*
X14609285Y-12843571D01*
X14623571Y-12815000D01*
X14652143Y-12772143D01*
X14666428Y-12757857D01*
X14766428Y-12829286D02*
X14780714Y-12815000D01*
X14809285Y-12800714D01*
X14880714Y-12800714D01*
X14909285Y-12815000D01*
X14923571Y-12829286D01*
X14937857Y-12857857D01*
X14937857Y-12886429D01*
X14923571Y-12929286D01*
X14752143Y-13100714D01*
X14937857Y-13100714D01*
X15295000Y-13100714D02*
X15295000Y-12800714D01*
X15423571Y-13100714D02*
X15423571Y-12943571D01*
X15409285Y-12915000D01*
X15380714Y-12900714D01*
X15337857Y-12900714D01*
X15309285Y-12915000D01*
X15295000Y-12929286D01*
X15609285Y-13100714D02*
X15580714Y-13086429D01*
X15566428Y-13072143D01*
X15552143Y-13043571D01*
X15552143Y-12957857D01*
X15566428Y-12929286D01*
X15580714Y-12915000D01*
X15609285Y-12900714D01*
X15652143Y-12900714D01*
X15680714Y-12915000D01*
X15695000Y-12929286D01*
X15709285Y-12957857D01*
X15709285Y-13043571D01*
X15695000Y-13072143D01*
X15680714Y-13086429D01*
X15652143Y-13100714D01*
X15609285Y-13100714D01*
X15880714Y-13100714D02*
X15852143Y-13086429D01*
X15837857Y-13057857D01*
X15837857Y-12800714D01*
X16109286Y-13086429D02*
X16080714Y-13100714D01*
X16023571Y-13100714D01*
X15995000Y-13086429D01*
X15980714Y-13057857D01*
X15980714Y-12943571D01*
X15995000Y-12915000D01*
X16023571Y-12900714D01*
X16080714Y-12900714D01*
X16109286Y-12915000D01*
X16123571Y-12943571D01*
X16123571Y-12972143D01*
X15980714Y-13000714D01*
X16237857Y-13086429D02*
X16266428Y-13100714D01*
X16323571Y-13100714D01*
X16352143Y-13086429D01*
X16366428Y-13057857D01*
X16366428Y-13043571D01*
X16352143Y-13015000D01*
X16323571Y-13000714D01*
X16280714Y-13000714D01*
X16252143Y-12986429D01*
X16237857Y-12957857D01*
X16237857Y-12943571D01*
X16252143Y-12915000D01*
X16280714Y-12900714D01*
X16323571Y-12900714D01*
X16352143Y-12915000D01*
X16466428Y-13215000D02*
X16480714Y-13200714D01*
X16509286Y-13157857D01*
X16523571Y-13129286D01*
X16537857Y-13086429D01*
X16552143Y-13015000D01*
X16552143Y-12957857D01*
X16537857Y-12886429D01*
X16523571Y-12843571D01*
X16509286Y-12815000D01*
X16480714Y-12772143D01*
X16466428Y-12757857D01*
X9995000Y-13361000D02*
G75*
G03X9995000Y-13361000I-42500J0D01*
G01*
X10323571Y-13196714D02*
X10352143Y-13196714D01*
X10380714Y-13211000D01*
X10395000Y-13225286D01*
X10409286Y-13253857D01*
X10423571Y-13311000D01*
X10423571Y-13382429D01*
X10409286Y-13439571D01*
X10395000Y-13468143D01*
X10380714Y-13482429D01*
X10352143Y-13496714D01*
X10323571Y-13496714D01*
X10295000Y-13482429D01*
X10280714Y-13468143D01*
X10266429Y-13439571D01*
X10252143Y-13382429D01*
X10252143Y-13311000D01*
X10266429Y-13253857D01*
X10280714Y-13225286D01*
X10295000Y-13211000D01*
X10323571Y-13196714D01*
X10552143Y-13468143D02*
X10566429Y-13482429D01*
X10552143Y-13496714D01*
X10537857Y-13482429D01*
X10552143Y-13468143D01*
X10552143Y-13496714D01*
X10737857Y-13325286D02*
X10709286Y-13311000D01*
X10695000Y-13296714D01*
X10680714Y-13268143D01*
X10680714Y-13253857D01*
X10695000Y-13225286D01*
X10709286Y-13211000D01*
X10737857Y-13196714D01*
X10795000Y-13196714D01*
X10823571Y-13211000D01*
X10837857Y-13225286D01*
X10852143Y-13253857D01*
X10852143Y-13268143D01*
X10837857Y-13296714D01*
X10823571Y-13311000D01*
X10795000Y-13325286D01*
X10737857Y-13325286D01*
X10709286Y-13339571D01*
X10695000Y-13353857D01*
X10680714Y-13382429D01*
X10680714Y-13439571D01*
X10695000Y-13468143D01*
X10709286Y-13482429D01*
X10737857Y-13496714D01*
X10795000Y-13496714D01*
X10823571Y-13482429D01*
X10837857Y-13468143D01*
X10852143Y-13439571D01*
X10852143Y-13382429D01*
X10837857Y-13353857D01*
X10823571Y-13339571D01*
X10795000Y-13325286D01*
X11123571Y-13196714D02*
X10980714Y-13196714D01*
X10966429Y-13339571D01*
X10980714Y-13325286D01*
X11009286Y-13311000D01*
X11080714Y-13311000D01*
X11109286Y-13325286D01*
X11123571Y-13339571D01*
X11137857Y-13368143D01*
X11137857Y-13439571D01*
X11123571Y-13468143D01*
X11109286Y-13482429D01*
X11080714Y-13496714D01*
X11009286Y-13496714D01*
X10980714Y-13482429D01*
X10966429Y-13468143D01*
X11266428Y-13496714D02*
X11266428Y-13296714D01*
X11266428Y-13325286D02*
X11280714Y-13311000D01*
X11309286Y-13296714D01*
X11352143Y-13296714D01*
X11380714Y-13311000D01*
X11395000Y-13339571D01*
X11395000Y-13496714D01*
X11395000Y-13339571D02*
X11409286Y-13311000D01*
X11437857Y-13296714D01*
X11480714Y-13296714D01*
X11509286Y-13311000D01*
X11523571Y-13339571D01*
X11523571Y-13496714D01*
X11666428Y-13496714D02*
X11666428Y-13296714D01*
X11666428Y-13325286D02*
X11680714Y-13311000D01*
X11709286Y-13296714D01*
X11752143Y-13296714D01*
X11780714Y-13311000D01*
X11795000Y-13339571D01*
X11795000Y-13496714D01*
X11795000Y-13339571D02*
X11809286Y-13311000D01*
X11837857Y-13296714D01*
X11880714Y-13296714D01*
X11909286Y-13311000D01*
X11923571Y-13339571D01*
X11923571Y-13496714D01*
X12509286Y-13182429D02*
X12252143Y-13568143D01*
X12895000Y-13196714D02*
X12923571Y-13196714D01*
X12952143Y-13211000D01*
X12966428Y-13225286D01*
X12980714Y-13253857D01*
X12995000Y-13311000D01*
X12995000Y-13382429D01*
X12980714Y-13439571D01*
X12966428Y-13468143D01*
X12952143Y-13482429D01*
X12923571Y-13496714D01*
X12895000Y-13496714D01*
X12866428Y-13482429D01*
X12852143Y-13468143D01*
X12837857Y-13439571D01*
X12823571Y-13382429D01*
X12823571Y-13311000D01*
X12837857Y-13253857D01*
X12852143Y-13225286D01*
X12866428Y-13211000D01*
X12895000Y-13196714D01*
X13123571Y-13468143D02*
X13137857Y-13482429D01*
X13123571Y-13496714D01*
X13109286Y-13482429D01*
X13123571Y-13468143D01*
X13123571Y-13496714D01*
X13323571Y-13196714D02*
X13352143Y-13196714D01*
X13380714Y-13211000D01*
X13395000Y-13225286D01*
X13409285Y-13253857D01*
X13423571Y-13311000D01*
X13423571Y-13382429D01*
X13409285Y-13439571D01*
X13395000Y-13468143D01*
X13380714Y-13482429D01*
X13352143Y-13496714D01*
X13323571Y-13496714D01*
X13295000Y-13482429D01*
X13280714Y-13468143D01*
X13266428Y-13439571D01*
X13252143Y-13382429D01*
X13252143Y-13311000D01*
X13266428Y-13253857D01*
X13280714Y-13225286D01*
X13295000Y-13211000D01*
X13323571Y-13196714D01*
X13523571Y-13196714D02*
X13709285Y-13196714D01*
X13609285Y-13311000D01*
X13652143Y-13311000D01*
X13680714Y-13325286D01*
X13695000Y-13339571D01*
X13709285Y-13368143D01*
X13709285Y-13439571D01*
X13695000Y-13468143D01*
X13680714Y-13482429D01*
X13652143Y-13496714D01*
X13566428Y-13496714D01*
X13537857Y-13482429D01*
X13523571Y-13468143D01*
X13809285Y-13196714D02*
X13995000Y-13196714D01*
X13895000Y-13311000D01*
X13937857Y-13311000D01*
X13966428Y-13325286D01*
X13980714Y-13339571D01*
X13995000Y-13368143D01*
X13995000Y-13439571D01*
X13980714Y-13468143D01*
X13966428Y-13482429D01*
X13937857Y-13496714D01*
X13852143Y-13496714D01*
X13823571Y-13482429D01*
X13809285Y-13468143D01*
X14109286Y-13196714D02*
X14109286Y-13253857D01*
X14223571Y-13196714D02*
X14223571Y-13253857D01*
X14666428Y-13611000D02*
X14652143Y-13596714D01*
X14623571Y-13553857D01*
X14609285Y-13525286D01*
X14595000Y-13482429D01*
X14580714Y-13411000D01*
X14580714Y-13353857D01*
X14595000Y-13282429D01*
X14609285Y-13239571D01*
X14623571Y-13211000D01*
X14652143Y-13168143D01*
X14666428Y-13153857D01*
X14752143Y-13196714D02*
X14937857Y-13196714D01*
X14837857Y-13311000D01*
X14880714Y-13311000D01*
X14909285Y-13325286D01*
X14923571Y-13339571D01*
X14937857Y-13368143D01*
X14937857Y-13439571D01*
X14923571Y-13468143D01*
X14909285Y-13482429D01*
X14880714Y-13496714D01*
X14795000Y-13496714D01*
X14766428Y-13482429D01*
X14752143Y-13468143D01*
X15209285Y-13196714D02*
X15066428Y-13196714D01*
X15052143Y-13339571D01*
X15066428Y-13325286D01*
X15095000Y-13311000D01*
X15166428Y-13311000D01*
X15195000Y-13325286D01*
X15209285Y-13339571D01*
X15223571Y-13368143D01*
X15223571Y-13439571D01*
X15209285Y-13468143D01*
X15195000Y-13482429D01*
X15166428Y-13496714D01*
X15095000Y-13496714D01*
X15066428Y-13482429D01*
X15052143Y-13468143D01*
X15580714Y-13496714D02*
X15580714Y-13196714D01*
X15709285Y-13496714D02*
X15709285Y-13339571D01*
X15695000Y-13311000D01*
X15666428Y-13296714D01*
X15623571Y-13296714D01*
X15595000Y-13311000D01*
X15580714Y-13325286D01*
X15895000Y-13496714D02*
X15866428Y-13482429D01*
X15852143Y-13468143D01*
X15837857Y-13439571D01*
X15837857Y-13353857D01*
X15852143Y-13325286D01*
X15866428Y-13311000D01*
X15895000Y-13296714D01*
X15937857Y-13296714D01*
X15966428Y-13311000D01*
X15980714Y-13325286D01*
X15995000Y-13353857D01*
X15995000Y-13439571D01*
X15980714Y-13468143D01*
X15966428Y-13482429D01*
X15937857Y-13496714D01*
X15895000Y-13496714D01*
X16166428Y-13496714D02*
X16137857Y-13482429D01*
X16123571Y-13453857D01*
X16123571Y-13196714D01*
X16395000Y-13482429D02*
X16366428Y-13496714D01*
X16309286Y-13496714D01*
X16280714Y-13482429D01*
X16266428Y-13453857D01*
X16266428Y-13339571D01*
X16280714Y-13311000D01*
X16309286Y-13296714D01*
X16366428Y-13296714D01*
X16395000Y-13311000D01*
X16409286Y-13339571D01*
X16409286Y-13368143D01*
X16266428Y-13396714D01*
X16523571Y-13482429D02*
X16552143Y-13496714D01*
X16609286Y-13496714D01*
X16637857Y-13482429D01*
X16652143Y-13453857D01*
X16652143Y-13439571D01*
X16637857Y-13411000D01*
X16609286Y-13396714D01*
X16566428Y-13396714D01*
X16537857Y-13382429D01*
X16523571Y-13353857D01*
X16523571Y-13339571D01*
X16537857Y-13311000D01*
X16566428Y-13296714D01*
X16609286Y-13296714D01*
X16637857Y-13311000D01*
X16752143Y-13611000D02*
X16766428Y-13596714D01*
X16795000Y-13553857D01*
X16809286Y-13525286D01*
X16823571Y-13482429D01*
X16837857Y-13411000D01*
X16837857Y-13353857D01*
X16823571Y-13282429D01*
X16809286Y-13239571D01*
X16795000Y-13211000D01*
X16766428Y-13168143D01*
X16752143Y-13153857D01*
X9944200Y-13706200D02*
X9944200Y-13807800D01*
X9893400Y-13757000D02*
X9995000Y-13757000D01*
X10423571Y-13892714D02*
X10252143Y-13892714D01*
X10337857Y-13892714D02*
X10337857Y-13592714D01*
X10309286Y-13635571D01*
X10280714Y-13664143D01*
X10252143Y-13678429D01*
X10552143Y-13864143D02*
X10566429Y-13878429D01*
X10552143Y-13892714D01*
X10537857Y-13878429D01*
X10552143Y-13864143D01*
X10552143Y-13892714D01*
X10752143Y-13592714D02*
X10780714Y-13592714D01*
X10809286Y-13607000D01*
X10823571Y-13621286D01*
X10837857Y-13649857D01*
X10852143Y-13707000D01*
X10852143Y-13778429D01*
X10837857Y-13835571D01*
X10823571Y-13864143D01*
X10809286Y-13878429D01*
X10780714Y-13892714D01*
X10752143Y-13892714D01*
X10723571Y-13878429D01*
X10709286Y-13864143D01*
X10695000Y-13835571D01*
X10680714Y-13778429D01*
X10680714Y-13707000D01*
X10695000Y-13649857D01*
X10709286Y-13621286D01*
X10723571Y-13607000D01*
X10752143Y-13592714D01*
X10966429Y-13621286D02*
X10980714Y-13607000D01*
X11009286Y-13592714D01*
X11080714Y-13592714D01*
X11109286Y-13607000D01*
X11123571Y-13621286D01*
X11137857Y-13649857D01*
X11137857Y-13678429D01*
X11123571Y-13721286D01*
X10952143Y-13892714D01*
X11137857Y-13892714D01*
X11266428Y-13892714D02*
X11266428Y-13692714D01*
X11266428Y-13721286D02*
X11280714Y-13707000D01*
X11309286Y-13692714D01*
X11352143Y-13692714D01*
X11380714Y-13707000D01*
X11395000Y-13735571D01*
X11395000Y-13892714D01*
X11395000Y-13735571D02*
X11409286Y-13707000D01*
X11437857Y-13692714D01*
X11480714Y-13692714D01*
X11509286Y-13707000D01*
X11523571Y-13735571D01*
X11523571Y-13892714D01*
X11666428Y-13892714D02*
X11666428Y-13692714D01*
X11666428Y-13721286D02*
X11680714Y-13707000D01*
X11709286Y-13692714D01*
X11752143Y-13692714D01*
X11780714Y-13707000D01*
X11795000Y-13735571D01*
X11795000Y-13892714D01*
X11795000Y-13735571D02*
X11809286Y-13707000D01*
X11837857Y-13692714D01*
X11880714Y-13692714D01*
X11909286Y-13707000D01*
X11923571Y-13735571D01*
X11923571Y-13892714D01*
X12509286Y-13578429D02*
X12252143Y-13964143D01*
X12895000Y-13592714D02*
X12923571Y-13592714D01*
X12952143Y-13607000D01*
X12966428Y-13621286D01*
X12980714Y-13649857D01*
X12995000Y-13707000D01*
X12995000Y-13778429D01*
X12980714Y-13835571D01*
X12966428Y-13864143D01*
X12952143Y-13878429D01*
X12923571Y-13892714D01*
X12895000Y-13892714D01*
X12866428Y-13878429D01*
X12852143Y-13864143D01*
X12837857Y-13835571D01*
X12823571Y-13778429D01*
X12823571Y-13707000D01*
X12837857Y-13649857D01*
X12852143Y-13621286D01*
X12866428Y-13607000D01*
X12895000Y-13592714D01*
X13123571Y-13864143D02*
X13137857Y-13878429D01*
X13123571Y-13892714D01*
X13109286Y-13878429D01*
X13123571Y-13864143D01*
X13123571Y-13892714D01*
X13323571Y-13592714D02*
X13352143Y-13592714D01*
X13380714Y-13607000D01*
X13395000Y-13621286D01*
X13409285Y-13649857D01*
X13423571Y-13707000D01*
X13423571Y-13778429D01*
X13409285Y-13835571D01*
X13395000Y-13864143D01*
X13380714Y-13878429D01*
X13352143Y-13892714D01*
X13323571Y-13892714D01*
X13295000Y-13878429D01*
X13280714Y-13864143D01*
X13266428Y-13835571D01*
X13252143Y-13778429D01*
X13252143Y-13707000D01*
X13266428Y-13649857D01*
X13280714Y-13621286D01*
X13295000Y-13607000D01*
X13323571Y-13592714D01*
X13680714Y-13692714D02*
X13680714Y-13892714D01*
X13609285Y-13578429D02*
X13537857Y-13792714D01*
X13723571Y-13792714D01*
X13895000Y-13592714D02*
X13923571Y-13592714D01*
X13952143Y-13607000D01*
X13966428Y-13621286D01*
X13980714Y-13649857D01*
X13995000Y-13707000D01*
X13995000Y-13778429D01*
X13980714Y-13835571D01*
X13966428Y-13864143D01*
X13952143Y-13878429D01*
X13923571Y-13892714D01*
X13895000Y-13892714D01*
X13866428Y-13878429D01*
X13852143Y-13864143D01*
X13837857Y-13835571D01*
X13823571Y-13778429D01*
X13823571Y-13707000D01*
X13837857Y-13649857D01*
X13852143Y-13621286D01*
X13866428Y-13607000D01*
X13895000Y-13592714D01*
X14109286Y-13592714D02*
X14109286Y-13649857D01*
X14223571Y-13592714D02*
X14223571Y-13649857D01*
X14666428Y-14007000D02*
X14652143Y-13992714D01*
X14623571Y-13949857D01*
X14609285Y-13921286D01*
X14595000Y-13878429D01*
X14580714Y-13807000D01*
X14580714Y-13749857D01*
X14595000Y-13678429D01*
X14609285Y-13635571D01*
X14623571Y-13607000D01*
X14652143Y-13564143D01*
X14666428Y-13549857D01*
X14923571Y-13592714D02*
X14780714Y-13592714D01*
X14766428Y-13735571D01*
X14780714Y-13721286D01*
X14809285Y-13707000D01*
X14880714Y-13707000D01*
X14909285Y-13721286D01*
X14923571Y-13735571D01*
X14937857Y-13764143D01*
X14937857Y-13835571D01*
X14923571Y-13864143D01*
X14909285Y-13878429D01*
X14880714Y-13892714D01*
X14809285Y-13892714D01*
X14780714Y-13878429D01*
X14766428Y-13864143D01*
X15052143Y-13621286D02*
X15066428Y-13607000D01*
X15095000Y-13592714D01*
X15166428Y-13592714D01*
X15195000Y-13607000D01*
X15209285Y-13621286D01*
X15223571Y-13649857D01*
X15223571Y-13678429D01*
X15209285Y-13721286D01*
X15037857Y-13892714D01*
X15223571Y-13892714D01*
X15580714Y-13892714D02*
X15580714Y-13592714D01*
X15709285Y-13892714D02*
X15709285Y-13735571D01*
X15695000Y-13707000D01*
X15666428Y-13692714D01*
X15623571Y-13692714D01*
X15595000Y-13707000D01*
X15580714Y-13721286D01*
X15895000Y-13892714D02*
X15866428Y-13878429D01*
X15852143Y-13864143D01*
X15837857Y-13835571D01*
X15837857Y-13749857D01*
X15852143Y-13721286D01*
X15866428Y-13707000D01*
X15895000Y-13692714D01*
X15937857Y-13692714D01*
X15966428Y-13707000D01*
X15980714Y-13721286D01*
X15995000Y-13749857D01*
X15995000Y-13835571D01*
X15980714Y-13864143D01*
X15966428Y-13878429D01*
X15937857Y-13892714D01*
X15895000Y-13892714D01*
X16166428Y-13892714D02*
X16137857Y-13878429D01*
X16123571Y-13849857D01*
X16123571Y-13592714D01*
X16395000Y-13878429D02*
X16366428Y-13892714D01*
X16309286Y-13892714D01*
X16280714Y-13878429D01*
X16266428Y-13849857D01*
X16266428Y-13735571D01*
X16280714Y-13707000D01*
X16309286Y-13692714D01*
X16366428Y-13692714D01*
X16395000Y-13707000D01*
X16409286Y-13735571D01*
X16409286Y-13764143D01*
X16266428Y-13792714D01*
X16523571Y-13878429D02*
X16552143Y-13892714D01*
X16609286Y-13892714D01*
X16637857Y-13878429D01*
X16652143Y-13849857D01*
X16652143Y-13835571D01*
X16637857Y-13807000D01*
X16609286Y-13792714D01*
X16566428Y-13792714D01*
X16537857Y-13778429D01*
X16523571Y-13749857D01*
X16523571Y-13735571D01*
X16537857Y-13707000D01*
X16566428Y-13692714D01*
X16609286Y-13692714D01*
X16637857Y-13707000D01*
X16752143Y-14007000D02*
X16766428Y-13992714D01*
X16795000Y-13949857D01*
X16809286Y-13921286D01*
X16823571Y-13878429D01*
X16837857Y-13807000D01*
X16837857Y-13749857D01*
X16823571Y-13678429D01*
X16809286Y-13635571D01*
X16795000Y-13607000D01*
X16766428Y-13564143D01*
X16752143Y-13549857D01*
M02*
